<?xml version="1.0" encoding="UTF-8"?><svg id="Layer_2" xmlns="http://www.w3.org/2000/svg" viewBox="0 0 1024 1024"><defs><style>.cls-1{fill:#92d4dc;}.cls-2{fill:#fff;}.cls-3{fill:#294255;}</style></defs><path class="cls-1" d="M650.96,889.23c-8.39-35.82-29.82-70.51-58.78-95.17-.87-.73-4.87-3.58-8.75-6.33-45.58-32.43-59.83-45.66-60.96-56.62-.41-3.93.81-7.65,3.41-10.47l.24-.26c-12.65,4.63-25.75,7.1-38.73,7.1-7.78,0-15.53-.89-23.02-2.64-3.96-.93-8.42-2.8-12.74-4.62-2.42-1.02-5.96-2.51-7.62-2.96-1.68.44-5.3,2.25-7.54,3.36-4.02,2-8.18,4.07-12.38,5.14-8.88,2.27-18,3.41-27.1,3.41-32.34,0-63.21-14.41-84.68-39.53-2.51-2.94-4.68-7.23-6.59-11.02-.26-.52-.56-1.11-.85-1.67-.26-.08-.52-.16-.76-.23-3.27-1-7.34-2.24-10.86-4.56-14-9.23-23.19-22.92-26.55-39.57-5.63-27.85,5.73-57.78,18.23-76.51,2.66-3.98,5.51-7.86,8.54-11.61-3.19,2.94-7.02,5.38-12.36,6.79l-20.39,66.47-7.21.62c-4.39.38-9.07.57-13.93.57-44.37,0-118.58-17.23-141.2-64.68-2.14-4.48-3.42-9.96-4.66-15.26-.57-2.41-1.38-5.89-1.98-7.54-1.18-.91-3.52-2.43-5.16-3.5-4.16-2.7-8.88-5.77-12.19-9.14-22.9-23.35-30.96-58.34-20.06-87.06,1.83-4.82,5.35-10.06,8.75-15.12,1.59-2.37,3.91-5.82,4.76-7.52-.15-1.24-.83-3.6-1.3-5.24-1.01-3.48-2.15-7.42-2.21-11.54-.29-19.95,12.05-44.19,23.81-56.86,3.08-3.32,8.09-6.94,13.39-10.77,2.54-1.84,6.22-4.5,7.82-5.9.66-1.95,1.48-6.03,2.05-8.86,1.09-5.42,2.33-11.56,4.39-16.62,13.03-31.9,47.83-61.03,79.22-66.32,3.45-.58,7.6-.64,11.99-.71,2.03-.03,5.01-.07,7.13-.22.68-1.16,1.45-2.53,2.06-3.6,2.85-5.04,4.86-8.52,6.86-10.92,21.34-25.55,54.15-43.05,85.63-45.67,1.73-.14,3.65-.21,5.88-.21,3.84,0,8.1.21,12.21.42,4.04.2,8.21.41,11.85.41s5.77-.21,7.03-.43c1.53-1.23,4.32-3.75,6.46-5.68,5.12-4.62,10.41-9.4,14.44-11.87,19.74-12.12,43.53-18.79,67-18.79,12.41,0,24.18,1.89,34.97,5.62,3.55,1.23,7.49,3.42,11.66,5.74,2.78,1.55,7.6,4.23,10.23,5.17,1.84-.99,4.76-2.76,7.05-4.14,6.68-4.03,13.58-8.2,19.15-9.99,11.56-3.73,23.59-5.62,35.76-5.62,21.8,0,43.47,6.08,62.68,17.58,2.8,1.68,5.41,4.12,7.92,6.47,1.35,1.27,3.48,3.26,4.76,4.17,1.61-.23,4.46-1,6.45-1.54,3.86-1.05,7.85-2.13,11.64-2.33,3.23-.17,6.49-.26,9.7-.26,37.38,0,70.31,11.76,92.73,33.11,4.85,4.62,9.33,12.26,13.29,19,1.37,2.34,3.16,5.39,4.24,6.95,2.73.99,9.13,2.43,13.52,3.42,6.61,1.49,12.85,2.89,17.2,4.57,48.46,18.69,84.06,66.82,87.07,116.38,14.25,6.47,27.92,18.1,39.09,33.41,12.73,17.45,20.27,37.44,20.68,54.85.12,4.85-1.11,10.1-2.3,15.17-.53,2.27-1.28,5.49-1.5,7.32,1.44,2.45,4.62,7.37,7.26,11.46,8.14,12.59,14.57,22.7,17.04,28.7,14.68,35.69,14.09,77.71-1.56,112.4-12.3,27.25-33.19,47.92-59.26,58.83-5.33,43.96-24.48,82.05-54.36,107.83-28.73,24.79-65.67,37.36-109.79,37.36-13.02,0-26.74-1.11-40.98-3.31,1.78,3.62,3.65,7.32,5.56,11.1,12.55,24.82,25.52,50.48,25.52,76.48,0,5.86-4.52,11.8-13.17,11.8-.27,0-.52,0-.73,0,0,0-27.47-.02-32.95-.02s-10.95,0-16.42.02c-.46,0-1.44.02-2.1.06h-.19s-10.5.27-10.5.27l-1.99-8.49ZM691.84,661.58c.08-.01.15-.02.23-.03-.06,0-.11,0-.16,0-.02,0-.05.02-.07.03ZM774.85,649.42l5.27-7.88c-2.42,2.22-4.9,4.29-7.43,6.21l2.16,1.67ZM524.09,624.97c.31,1.28.55,2.65.67,4.1l1.04-2.8c-.58-.42-1.15-.85-1.71-1.3ZM399.65,585.83c.42.79.71,1.56.9,2.33l1.69-2c-.49-.05-.97-.11-1.46-.17-.38-.04-.76-.1-1.14-.16ZM309.2,526.58c-3.04,3.07-5.37,5.84-7.41,8.36,2.98-3.17,6.09-6.25,9.32-9.21-.44.22-.89.42-1.37.62-.17.07-.37.16-.54.23ZM200.45,524.13c.61.01,1.2.06,1.77.14-1.21-1.2-2.38-2.44-3.52-3.7.04,1.16-.09,2.4-.51,3.7.66-.09,1.31-.14,1.96-.14h.3ZM627.33,520.12c.17-.03.35-.07.52-.1-.09-.01-.17-.02-.25-.03-.09.04-.18.09-.28.13ZM318.93,508.73c.63,2.51,1.2,7.1-1.31,11.29,5.96-4.98,12.28-9.63,18.9-13.92-4.46,1.98-8.25,3.07-11.76,3.07h-.11c-1.84-.01-3.76-.17-5.73-.44ZM372.61,487.47c-2.49.96-5.02,2.02-7.61,3.15-.61.27-1.31.61-2.07,1,3.19-1.46,6.42-2.85,9.69-4.15ZM408.35,476.62c2.77-.59,5.54-1.12,8.34-1.6-4.35-.15-8.17-1.33-11.39-3.52l3.05,5.12ZM469.76,472.67c3.18.27,6.33.62,9.46,1.05.48-.46.97-.92,1.46-1.37l-6.62.22c-1.38.05-2.8.08-4.29.1ZM438.69,472.41c-1.56.02-3.02.05-4.44.09-.9.03-2.32.3-3.82.62,2.75-.29,5.5-.53,8.26-.71ZM483.69,457.95l3.4,8.74c3.49-2.91,7.1-5.69,10.84-8.32-2.55,1.07-4.52,1.49-6.5,1.49-2.56,0-4.97-.78-6.96-2.26l-1.3-.97c.17.44.34.89.51,1.33ZM522.49,443.95s-.01,0-.02,0c.01,0,.03-.01.04-.02,0,0-.01,0-.02,0ZM613.33,424.84c2.54.06,5.09.17,7.62.33-2.69-1.36-5.03-3.45-6.44-6.65l-1.19,6.32ZM777.51,362.8s.02-.03.03-.04l-.06-.11s.02.1.02.15Z"/><path class="cls-3" d="M552.41,137.21c19.96,0,39.7,5.59,57.17,16.05,4.58,2.74,10.96,11.08,15.86,12.08.48.1,1.01.14,1.59.14,5.2,0,13.88-3.66,19.41-3.96,3.02-.16,6.07-.25,9.12-.25,30.81,0,62.58,8.48,85.34,30.15,6.78,6.46,14.8,24.22,18.25,26.81,4.21,3.16,25.26,6.18,33.54,9.37,45.13,17.41,80.71,64.52,80.41,113.77,30.52,9.95,58.81,49.25,59.57,81.12.18,7.36-4.78,19.54-3.69,24.91.6,2.95,20.99,31.79,25.01,41.56,24.33,59.15,3.06,137.38-60.89,159.48-3.6,40.91-19.94,80.24-51.39,107.38-29.5,25.45-65.7,34.75-102.79,34.75-19.79,0-39.83-2.65-59.24-6.91,12.39,31.27,38.62,68.01,38.62,101.91,0,.96-1.43,1.07-2.45,1.07-.32,0-.6-.01-.78-.01-10.96,0-21.93-.02-32.9-.02-5.48,0-10.97,0-16.45.02-.49,0-1.73.02-2.72.08l-1.58.04c-9.08-38.73-32.09-75.2-62.27-100.89-5.91-5.04-73.21-49.5-65.38-57.97,19.23-6,36.19-20.44,50.85-34.02,9.34,1.36,18.87,2.17,28.39,2.17,13.82,0,27.63-1.69,40.82-5.81,10.78-3.37,32.39-17.42,39.99-18.12.37-.03.73-.05,1.08-.05,4.18,0,7.82,2.13,11.62,2.17,1.26.01,2.51.02,3.75.02,21.95,0,41.02-2.32,60.2-14.7,17.5,13.5,38.45,21.51,60.43,21.51,3.49,0,6.99-.2,10.52-.61,9.1-1.06,34.58-8.45,33.64-20.11-.34-4.2-2.66-5.6-5.78-5.6-5.73,0-14.16,4.74-17.92,5.61-7.22,1.67-13.67,2.43-19.73,2.43-15.27,0-28.12-4.83-44.67-12.17l27.91-41.78c4.04-10.57,14.55-35.32-.8-35.32-1.62,0-3.53.28-5.76.87-10.07,37.32-40.96,77.93-82.41,80.62-.71.05-1.43.07-2.17.07-10.47,0-23.97-4.28-31.53-4.28-.87,0-1.66.06-2.36.18-5.34.96-25.22,14.62-33.79,17.87-14.39,5.45-28.63,7.84-43,7.84-12.18,0-24.46-1.71-37.02-4.73-21.56,25.87-54.41,44.78-88.6,44.78-6.83,0-13.72-.75-20.58-2.36-6.61-1.55-17.67-7.61-22.26-7.92-.15,0-.29-.01-.44-.01-5.8,0-15.58,7.09-22.67,8.9-8.14,2.08-16.34,3.08-24.45,3.08-29.16,0-57.06-13.01-76.52-35.77-3.04-3.56-6.82-13.08-8.26-14.27-1.85-1.53-8.99-2.53-13.04-5.2-34.73-22.9-25.31-71.21-5.31-101.16,33.66-50.4,97.81-79.36,158.85-79.36,10.21,0,20.32.81,30.2,2.46,32.66-33.43,78.82-49.63,125.15-49.63,15,0,30.02,1.7,44.61,5.06,6.17,1.42,26.84,10.39,38.42,10.39,6.7,0,10.36-3,6.43-12.18-3.62-8.47-45.87-19.36-55.96-21.43-4.73-.97-16.27,1.12-17.49-3.93-2.27-9.46,17.39-44.08,24.43-52.42,8.37-9.92,37.93-25.38,17.1-34.36-34.7,13.05-54.65,52.63-61.25,87.81-29.65.51-59.59,7.19-86.43,19.77-4.04,1.89-22.52,14.9-26.5,14.9-.23,0-.42-.05-.55-.14-23.13-62.78-21.23-169.61,53.31-195.54.87-25.71,11.58-52.57,36.27-63.49,8.72-3.85,27.69-3.57,28.49-12.48.63-7.05-4.94-9.12-11.61-9.12-6.6,0-14.28,2.02-18.09,3.22-18.68,5.9-37.46,22.46-45.16,40.66-3.36,7.95-4.12,20.84-6.95,25.23-2.1,3.26-15.47,10.12-20.12,14.2-57.85,50.73-59.66,142.47-33.32,210.17-2.65.09-5.31.12-7.96.12-8.02,0-16.06-.3-24.08-.3-2.58,0-5.16.03-7.73.11-4.73.15-10.88,2.54-16.26,2.54-2.72,0-5.24-.61-7.29-2.43-5.24-4.66-20.62-43.35-23.06-52.02-15.9-56.59-5.54-149.2,57.01-173.68,9.13-3.57,32.8-3.53,26.19-16.78-1.77-3.56-5.79-4.93-10.83-4.93-12.76,0-32.12,8.76-38.59,13.03-8.21-15.98-39.2-34.37-62.12-34.37-7.74,0-14.56,2.1-19.28,7.1-9.37,9.94,6.27,10.68,17.86,10.68,2.03,0,3.93-.02,5.56-.02,1.82,0,3.29.03,4.19.15,13.55,1.8,31.47,14.42,37.43,27-9.28,13.34-20.77,25.16-27.98,39.99-29.63,60.97-18.35,135.81,15.41,192.39-10.85,2.24-21.36,5.93-31.48,10.38-9.31,4.09-28.38,17.64-35.91,17.64-.01,0-.03,0-.04,0-15.79-.1-41.1-14.11-52.74-24.75-5.24-4.79-14.7-19.97-17.15-21.46-1.73-1.05-3.72-1.61-5.61-1.61-3.45,0-6.59,1.85-7.32,5.94-3.8,21.34,44,54.7,65.54,54.7.36,0,.71,0,1.05-.03,1.48,5.59-3.32,4.22-6.48,7.37-14.97,14.91-14.25,23.24-32.13,23.24-3.2,0-7-.27-11.58-.81-20.74-2.46-40.49-14.22-53.69-29.99-3.71-4.44-9.59-19.05-16.92-19.05-1.68,0-3.43.77-5.25,2.6-6.53,6.57,1.83,17.37,4.21,23.81.88,2.39,2.65,2.05-.42,4.59-2.9,2.4-17.11,6.82-20.95,7.03-.14,0-.29.01-.44.01-5.79,0-17.44-5.55-24.48-5.55-2.71,0-4.73.82-5.48,3.1-4.44,13.57,19.6,17.74,33.17,17.74,2.3,0,4.29-.12,5.8-.33,8.63-1.23,22.15-10.12,26.3-10.12.02,0,.04,0,.06,0,4.11.09,7.21,5.94,11.04,8.16,16.42,9.54,33.32,15.5,52.3,15.5,1.38,0,2.76-.03,4.16-.1l-15.1,49.23c-4.08.35-8.44.53-13,.53-45.77,0-112.19-18.02-131.51-58.57-3.37-7.07-4.75-20.65-7.58-24.6-2.27-3.18-13.55-8.75-18.44-13.74-19.2-19.57-27.53-49.82-17.69-75.74,2.87-7.55,13.42-19.8,14.13-24.52.81-5.37-3.35-12.96-3.44-18.87-.24-16.13,10.11-37.73,20.95-49.41,4.94-5.32,20.77-14.84,22.54-18.22,2.77-5.3,3.81-18.93,7.17-27.16,11.04-27.03,42.01-54.9,71.07-59.8,6.49-1.09,20.23.15,23.74-2.01,1.7-1.05,7.62-13.4,10.75-17.14,18.85-22.57,48.77-39.4,78.29-41.86,1.52-.13,3.2-.18,4.99-.18,7.25,0,16.36.83,24.07.83,4.41,0,8.36-.27,11.23-1.12,2.65-.78,16.11-14.64,22.32-18.45,17.71-10.87,39.82-17.2,61.38-17.2,10.84,0,21.54,1.6,31.47,5.03,6.87,2.37,19.67,11.79,26.18,11.79.2,0,.38,0,.57-.03,3.53-.33,19.9-12.25,28.14-14.91,10.66-3.44,21.6-5.1,32.47-5.1M568.29,341.93c9.62,0,10.58-20.13,13.78-28.08,14.58-36.25,49.55-60.73,88.38-60.73,4.05,0,8.14.27,12.25.81,5.53.74,22.88,9.41,30.22,9.41,1.47,0,2.54-.35,3.04-1.18,2.99-10.56-6.25-16.45-14.83-20.21-9.12-4-20.24-5.88-31.55-5.88-14.77,0-29.89,3.21-41.38,9.1-.27-8.5,2.45-28.11-9.66-28.11h-.02c-17.09.04-4.42,25.41-8.61,34.53-1.36,2.95-25.59,22.08-31.02,29.04-7.62,9.75-29.18,52.98-15.08,60.08,1.68.85,3.17,1.23,4.5,1.23M214,318.03c-.47-.08-.97-.11-1.49-.11-13.91,0-44.6,26.71-36.09,38.93,1.89,1.33,3.62,1.9,5.23,1.9,7.25,0,12.02-11.57,18.55-16.97,10.38-8.58,23.34-12.84,36.3-12.84s25.31,4.06,35.56,12.13c-.68,18.29,3.57,37.17,13.21,52.83,4.13,6.71,15.84,22.79,25.66,22.79,1.83,0,3.6-.56,5.24-1.84,9.58-7.5-8.42-19.14-12.91-26.08-11.95-18.46-17.1-45.21-10.96-66.45,2.37-8.2,17.17-25.55,3.8-25.55-.93,0-2,.08-3.23.26-8.98,1.31-15.87,17.12-16.59,25.38-12.84-4.21-24.36-9.08-37.69-9.08-2.39,0-4.83.16-7.36.5-1.06-36.1,27.09-58.45,60.85-58.45,2.93,0,5.89.17,8.89.51,11.63,1.33,25.39,13.01,31.76,13.01.13,0,.26,0,.39-.02,17.01-1.41-5.15-20.63-12.46-24.09-10.17-4.82-20.82-7.03-31.3-7.03-41.7,0-80.62,35.03-75.37,80.27M768.54,404.29c1.12,0,2.46-.21,4.04-.68,10.79-3.16,10.05-31.89,13.51-34.23,6.39-2.13,12.36-3.12,17.84-3.12,28.99,0,44.62,27.65,40.7,59.97-1.11,9.14-18.51,39.6-4.65,39.6.34,0,.7-.02,1.08-.06,6.75-.67,9.92-3.2,14.89-3.2,2.62,0,5.74.7,10.15,2.76,15.7,7.31,14.57,25.48,19.54,29.81,1.89,1.65,4.19,2.44,6.41,2.44,4.39,0,8.52-3.1,8.8-8.86.9-18.67-21.88-41.94-41.45-41.94-.56,0-1.12.02-1.67.06,15.09-46.83-5.47-97.37-53.18-97.37-6.36,0-13.2.9-20.51,2.82-7.65-13.91-11.17-27.83-22.74-39.63-8.01-8.17-30.51-21.42-46.12-21.42-4.55,0-8.51,1.12-11.36,3.82-12.23,11.58,21.69,14.05,29.27,17.92,20.94,10.7,37.03,43.2,34.39,66.1-.65,5.66-9.69,25.22,1.07,25.22M138.8,490.11c1.87,0,3.44-1.1,4.3-3.89,2.74-8.9-12.37-22.59-2.41-43.05,8.33-17.11,28.21-21.76,47.09-21.76,7.81,0,15.45.79,22.03,1.83,3.33-17.51-19.76-19.32-33.75-19.32-.96,0-1.88,0-2.74.02,1.89-19.91-2.77-28.37-7.75-28.37-6.11,0-12.68,12.73-8.18,32.66-28.39,12.23-47.62,39.83-32.12,70.57,2.2,4.37,8.83,11.3,13.53,11.3M696.38,568.78c9.96,0,22.95-3.97,27.67-5.67,30.22-10.93,54.4-39.13,63.44-69.58,2.48-8.36,9.2-33.48,3.21-39.72l-6.61-2.11c-9.83,1.18-10.96,25.19-14.24,34.91-10.25,30.45-30.19,51.18-60.62,61.68-7.73,2.67-24.56,2.24-25.37,11.31-.63,6.98,5.11,9.18,12.53,9.18M637.14,510.47c-3.71,0-6.79-1.24-9.92-1.24-.59,0-1.17.04-1.77.15-4.52.78-25.89,15.92-34.45,19.38-14.83,6.02-29.28,8.94-43.98,8.94-10.84,0-21.83-1.59-33.22-4.7-27.2,25.03-60.87,43.14-98.11,43.14-4.5,0-9.04-.26-13.64-.81-7.58-.9-19.28-9.17-26.54-9.17-2.48,0-4.44.96-5.54,3.51-4.66,10.77,11.2,18.94,20.05,20.94.37.49-6.09,8.83-7.19,9.94-6.93,6.99-22.69,10.85-14.4,23.43,1.77.4,3.47.58,5.1.58,16.17,0,25.64-18.19,35.08-29.33,2.73.17,5.45.26,8.14.26,26.93,0,52.03-8.47,75.55-21.7,5.07-2.85,26.09-18.82,27.77-19.14.38-.07.82-.11,1.31-.11,5.45,0,17.41,4.05,24.06,4.05.04,0,.08,0,.12,0,11.19-.08,34.18-5.03,45.15-8.68,12.25-4.08,26.17-15.6,35.21-18.43,10.47-3.27,57.28-5.6,51.29-27.32-1.03-3.73-3.46-5.12-6.67-5.12-8.8,0-23.51,10.4-31.61,11.31-.61.07-1.21.1-1.78.1M888.46,543.23c-8.93,0-11.74-12.94-22.54-12.94-.22,0-.45,0-.67.02-16.94.82,3.01,17.94,6.43,25.96,4.61,10.84,5.66,23.08,2.17,34.37-1.71,5.51-15.35,22.41-6.14,25.44,1.22.4,2.4.59,3.55.59,17.34,0,26.85-43.07,21.04-55.85h0c10.06,0,37.01-25.47,25.64-33.66-1.54-1.11-2.95-1.57-4.26-1.57-5.67,0-9.33,8.73-12.55,11.42-5.46,4.56-9.47,6.24-12.68,6.24M497.38,661.38c12.73,0,32.18-14.31,35.53-23.43,10.61,4.77,22.37,6.8,34.16,6.8,10.4,0,20.84-1.58,30.54-4.26,9.05-2.5,44.96-16.92,32.15-30.05-1.09-1.11-2.59-1.58-4.37-1.58-8.64,0-23.95,11.01-31.06,13.33-8.3,2.7-18.47,4.46-28.64,4.46-13.02,0-26.04-2.87-35.17-10.27-4.57-3.7-6.8-10.12-10.91-10.12-2.26,0-5.08,1.94-9.16,7.33-2.52,8.77,13.82,19.62-6.94,29.36-5.56,2.61-18.96,2.03-16.66,10.57,1.53,5.65,5.5,7.88,10.53,7.88M384.62,685.55c17.36,0,34.58-6.37,45.21-19.66-.92-6.37-3.61-8.55-7.21-8.55-7.2,0-18.03,8.69-25.6,9.98-4.02.69-7.81,1.05-11.44,1.05-10.78,0-20.08-3.18-29.7-10.38-5.74-4.3-13.04-16.02-20.31-16.02-.69,0-1.37.1-2.05.33-10.69,3.51-.47,18.27,3.92,23.4,11.13,13.03,29.24,19.85,47.19,19.85M552.41,115.76c-13.29,0-26.43,2.06-39.06,6.14-6.27,2.02-12.82,5.84-21.4,11.02-.62.37-1.32.8-2.04,1.23-1.57-.83-3.22-1.75-4.48-2.45-4.59-2.56-8.93-4.97-13.38-6.51-11.92-4.12-24.87-6.21-38.47-6.21-25.42,0-51.2,7.24-72.61,20.37-4.54,2.78-9.29,6.98-16.02,13.05-1.09.98-2.46,2.22-3.68,3.3-.71.03-1.57.05-2.63.05-3.37,0-7.41-.2-11.32-.4-4.25-.21-8.64-.43-12.75-.43-2.53,0-4.74.08-6.77.25-34.24,2.85-69.86,21.81-92.98,49.48-2.32,2.78-4.37,6.19-7.04,10.88-.33,0-.64,0-.93.01-4.6.07-9.35.14-13.61.86-17.56,2.96-36.28,12.36-52.71,26.48-15.62,13.42-27.93,29.89-34.66,46.36-2.45,6-3.79,12.67-4.98,18.56-.29,1.42-.65,3.24-1,4.79-1.47,1.1-3.25,2.39-4.63,3.39-5.74,4.15-11.17,8.07-14.97,12.16-13.51,14.56-27.01,41.33-26.67,64.32.08,5.57,1.5,10.45,2.63,14.37.04.15.09.31.14.48-.74,1.13-1.55,2.33-2.2,3.31-3.74,5.56-7.6,11.32-9.87,17.29-6.29,16.57-7.27,34.89-2.82,52.98,4.21,17.15,12.94,32.85,25.25,45.4,4.14,4.22,9.38,7.62,14,10.63.52.34,1.13.73,1.74,1.13.28,1.14.57,2.37.8,3.36,1.31,5.58,2.79,11.9,5.42,17.43,11.15,23.39,34.48,42.5,67.46,55.27,25.5,9.87,55.9,15.53,83.42,15.53,5.16,0,10.16-.21,14.85-.61l.79-.07c.25,1.94.57,3.86.95,5.74,3.95,19.51,14.72,35.56,31.16,46.4,3.38,2.23,6.91,3.66,10,4.71,1.9,3.68,4.06,7.57,6.81,10.79,23.51,27.51,57.35,43.29,92.83,43.29,9.99,0,20-1.26,29.75-3.75,5.3-1.35,10.19-3.78,14.5-5.93.88-.44,1.97-.98,2.98-1.46,1.11.45,2.29.95,3.24,1.35,4.73,1.99,9.62,4.05,14.46,5.18,8.29,1.94,16.86,2.92,25.47,2.92s16.68-.92,24.95-2.7c3.18,13.94,18.15,27.72,64.87,60.96,3.33,2.37,7.09,5.04,8.12,5.86,27.19,23.2,47.3,55.76,55.17,89.35l3.98,16.98,17.43-.43,1.58-.04h.4s.4-.03.4-.03c.32-.02,1.03-.04,1.45-.04,5.46-.01,10.93-.02,16.4-.02s10.95,0,16.43,0c5.44,0,10.87,0,16.31,0,.28,0,.6.01.94.01,15.52,0,23.9-11.61,23.9-22.53,0-25.97-11.73-51.52-23.26-74.54,7.66.66,15.15.99,22.43.99,46.77,0,86.07-13.45,116.8-39.96,30.53-26.34,50.55-64.54,57.18-108.61,25.94-12.47,46.69-34,59.21-61.76,16.85-37.33,17.49-82.53,1.71-120.9-2.82-6.87-9.22-16.95-17.95-30.45-1.57-2.42-3.47-5.36-4.97-7.73.21-.96.45-1.95.64-2.78,1.28-5.46,2.72-11.64,2.58-17.86-.47-19.83-8.55-41.47-22.74-60.92-10.77-14.76-23.77-26.46-37.59-33.99-2.61-23.33-11.76-46.7-26.45-67.08-17.13-23.76-40.9-42.37-66.92-52.41-5.09-1.96-11.7-3.45-18.7-5.03-2.54-.57-6.18-1.39-8.96-2.1-.64-1.07-1.32-2.23-1.91-3.23-4.31-7.35-9.2-15.68-15.14-21.34-13.11-12.48-29.17-21.92-47.72-28.04-16.15-5.33-33.79-8.03-52.41-8.03-3.39,0-6.85.09-10.27.28-4.93.26-9.68,1.56-13.88,2.69-.23.06-.48.13-.74.2-.11-.1-.22-.2-.32-.3-2.79-2.61-5.95-5.58-9.74-7.85-20.87-12.49-44.45-19.1-68.19-19.1h0Z"/><path class="cls-2" d="M552.41,147.94c14.63,0,29.21,3.35,42.71,9.75-7.92.38-15.86,2.64-19.11,3.67-22.13,6.99-42.95,25.76-51.81,46.7-2.06,4.87-3.22,10.59-4.24,15.64-.49,2.4-1.19,5.86-1.74,7.55-1.63,1.26-5.22,3.51-7.49,4.93-4.17,2.61-8.12,5.08-10.8,7.43-58.5,51.3-62.54,140.36-41.36,207.57-1.57-.02-3.14-.05-4.69-.08-4-.07-8.13-.15-12.24-.15-2.93,0-5.57.04-8.08.12-3.19.1-6.27.78-9.25,1.44-2.43.54-4.95,1.09-6.66,1.09-.09,0-.17,0-.24,0-4.54-6.84-17.36-38-19.78-46.62-7.94-28.25-8.26-64.02-.84-93.35,6.06-23.95,19.9-55.1,51.43-67.44,1.47-.57,4.55-1.21,7.27-1.78,9.24-1.92,20.74-4.31,25.25-13.59,1.67-3.45,2.92-9.06-.64-16.19-2.02-4.06-7.37-10.86-20.43-10.87-11.09,0-25.37,5.09-35.32,9.81-5.75-6.64-13.9-13.1-23.53-18.56-8.2-4.65-24.38-12.4-41.26-12.58,1.79-1.47,3.99-3.44,6.96-6.12,3.77-3.41,8.94-8.07,11.29-9.51,16.17-9.93,36.5-15.62,55.77-15.62,10.02,0,19.43,1.49,27.96,4.44,1.77.61,5.2,2.52,8.23,4.21,7.55,4.2,14.68,8.17,21.45,8.17.53,0,1.06-.02,1.58-.07,3.93-.37,7.46-2.42,15.78-7.44,4.83-2.92,11.45-6.91,14.65-7.94,9.42-3.04,19.24-4.58,29.18-4.58M655.56,172.02c31.85,0,59.53,9.66,77.94,27.19,2.67,2.54,6.66,9.35,9.58,14.32,4.3,7.33,6.51,10.96,9.63,13.31,4.01,3.01,10.61,4.59,21.92,7.14,5.3,1.19,11.31,2.55,14.19,3.66,20.27,7.82,38.88,22.45,52.4,41.21,13.76,19.09,21.27,41.28,21.14,62.48l-.05,7.84,7.45,2.43c12.37,4.04,25.35,14.41,35.61,28.47,10.22,14,16.25,29.57,16.57,42.71.05,2.12-.94,6.36-1.74,9.77-1.43,6.12-2.78,11.9-1.74,17.02.62,3.04,2.01,5.34,10.38,18.29,5.3,8.19,13.3,20.56,15.21,25.22,12.48,30.33,12,66-1.28,95.42-7.67,17.01-23.13,39.46-53.2,49.85l-6.57,2.27-.61,6.93c-.07.81-.15,1.62-.23,2.43-2.94-3.73-7.48-5.92-12.9-5.93-5.85,0-11.85,2.47-16.68,4.46-1.31.54-3.1,1.28-3.67,1.43-6.27,1.45-11.93,2.16-17.31,2.16-9.43,0-17.87-2.11-28.54-6.28l20.7-30.98.67-1,.43-1.13c.22-.58.46-1.21.72-1.87,6.01-15.5,10.82-30.26,3.85-40.44-1.94-2.83-6.51-7.57-15.4-7.57-2.63,0-5.42.4-8.53,1.24l-5.98,1.6-1.61,5.97c-9.28,34.39-37.24,70.41-72.75,72.71-.46.03-.95.04-1.48.04-4.65,0-10.53-1.12-16.21-2.21-5.57-1.06-10.83-2.07-15.32-2.07-1.55,0-2.95.12-4.27.35-4.47.81-10,3.97-20.19,9.96-5.47,3.21-12.27,7.21-15.5,8.43-12.69,4.81-25.51,7.14-39.2,7.14-10.8,0-22.09-1.45-34.52-4.43l-6.48-1.56-4.27,5.12c-10.09,12.11-22.64,22.29-36.3,29.46-14.3,7.5-29.53,11.46-44.06,11.46-6.14,0-12.24-.7-18.13-2.08-2.2-.51-5.98-2.1-9.32-3.51-5.6-2.35-10.43-4.39-14.67-4.67-.38-.03-.77-.04-1.16-.04-5.79,0-11.59,2.88-17.2,5.67-2.88,1.43-6.14,3.05-8.13,3.56-7.15,1.82-14.48,2.75-21.79,2.75-26.06,0-50.98-11.67-68.36-32.01-.87-1.04-2.74-4.76-3.75-6.75-2.16-4.28-3.46-6.86-5.85-8.82-2.49-2.05-5.48-2.96-8.65-3.93-1.64-.5-4.38-1.34-5.31-1.95-9.26-6.11-15.09-14.82-17.33-25.91-3.57-17.63,2.34-41.32,15.05-60.34,15.1-22.61,37.56-41.59,64.93-54.89,26.54-12.89,55.93-19.7,85-19.7,9.69,0,19.25.78,28.43,2.32l5.53.93,3.92-4.01c14.77-15.11,32.81-26.83,53.62-34.83,19.97-7.67,41.45-11.56,63.85-11.56,14.22,0,28.42,1.61,42.2,4.79,1.27.29,4.52,1.43,7.66,2.53,9.8,3.43,23.23,8.13,33.17,8.13,9.28,0,13.91-4.07,16.16-7.48,3.44-5.21,3.48-11.82.13-19.65-2.55-5.96-8.98-11.49-32.06-19.09-12.63-4.16-26.09-7.5-31.6-8.63-2.45-.5-5.02-.52-7.74-.54,0,0-.01,0-.02,0,1.21-3.56,3.42-8.91,7.26-16.31,5.12-9.88,10.88-18.98,13.49-22.07,1.5-1.77,4.76-4.46,7.92-7.06,9.62-7.92,20.52-16.9,18.84-28.73-.65-4.6-3.54-11-13.61-15.34l-3.97-1.71-4.05,1.52c-36.67,13.79-57.79,52.75-66.2,87.44-28.63,1.58-56.9,8.6-82.26,20.48-1.9.89-4.44,2.49-9.16,5.47-1.76,1.11-4.35,2.75-6.91,4.32-5.36-18.08-8.42-38.33-8.73-58.15-.41-26.54,4.11-50.6,13.08-69.57,10.13-21.43,25.62-35.9,46.05-43.01l6.95-2.42.25-7.35c.41-12.12,3.17-23.43,8-32.7,5.22-10.05,12.59-17.22,21.89-21.34,1.8-.8,5.44-1.55,8.65-2.22,4.68-.97,9.52-1.98,13.83-3.83,9.95-4.28,12.01-11.42,12.36-15.29.12-1.34.12-2.59.02-3.76,1.16.52,2.37.92,3.62,1.18,1.17.24,2.43.36,3.75.36,4.14,0,8.55-1.2,12.81-2.36,2.52-.68,5.65-1.53,7.17-1.62,2.85-.15,5.73-.23,8.55-.23M600.08,246.54c-2.16,2.09-6.62,5.97-10.05,8.96-9.73,8.48-16.36,14.35-19.62,18.52-6.65,8.5-25.7,43.62-21.36,63,1.35,6.02,4.86,10.73,9.9,13.27,3.13,1.58,6.27,2.38,9.32,2.38,4.29,0,12.24-1.64,17.31-12.63,2.2-4.77,3.46-10.28,4.57-15.14.63-2.77,1.29-5.63,1.85-7.03,6.4-15.9,17.2-29.44,31.24-39.14,14.08-9.73,30.4-14.87,47.18-14.87,3.58,0,7.21.24,10.78.71,1.41.27,5.95,2.02,8.97,3.18,9.61,3.71,16.87,6.33,22.73,6.33,7.64,0,11.13-4.52,12.28-6.46l.7-1.19.38-1.33c2.74-9.67,1.34-23.23-20.85-32.96-10.13-4.44-22.52-6.78-35.86-6.78-10.55,0-21.18,1.5-30.79,4.26-.52-6.46-2.15-13.04-6.78-17.77-3.52-3.6-8.18-5.5-13.51-5.5-7.84.02-12.45,3.38-14.94,6.2-6.47,7.34-5.18,17.81-4.14,26.23.3,2.42.72,5.85.68,7.77M728.23,322.54c16.34,8.37,30.74,36.22,28.59,55.25-.12.69-.7,2.66-1.12,4.1-2.52,8.59-5.66,19.29.18,27.09,2.91,3.89,7.41,6.03,12.66,6.03,2.2,0,4.51-.36,7.06-1.11,13.42-3.93,16.23-20.54,18.29-32.67.16-.96.35-2.06.53-3.09,3.32-.78,6.5-1.17,9.51-1.17,8.44,0,15.41,3.04,20.73,9.04,7.73,8.73,11.22,23.28,9.32,38.9-.22,1.52-2.03,6.26-3.35,9.72-4.94,12.92-10.05,26.28-3.79,35.37,2.91,4.22,7.57,6.55,13.14,6.55.69,0,1.41-.04,2.14-.11,4.43-.44,7.76-1.49,10.18-2.26,1.83-.58,2.82-.88,3.65-.88,1.21,0,3.16.61,5.62,1.75,5.66,2.63,7.62,7.67,9.98,15.05,1.52,4.75,3.09,9.67,7.05,13.12,3.76,3.27,8.54,5.08,13.45,5.08,10.6,0,18.99-8.2,19.51-19.07.55-11.56-5.04-24.4-15.36-35.22-7.4-7.77-16.25-13.37-25.08-16.1,5.37-26.64.66-53.58-13.17-72.57-12.5-17.16-31.47-26.61-53.41-26.61-4.75,0-9.67.44-14.69,1.31-.82-1.73-1.61-3.48-2.43-5.27-4.53-9.93-9.22-20.19-18.47-29.63-9.87-10.07-34.7-24.64-53.78-24.64-9.58,0-15.48,3.68-18.73,6.76-6.82,6.46-6.37,12.87-5.49,16.12,2.92,10.82,16.14,13.92,28.93,16.93,2.85.67,7.14,1.68,8.35,2.23M696.38,579.51c13.47,0,29.53-5.67,31.31-6.31,32.21-11.64,59.71-41.72,70.08-76.61,11.54-38.86,3.64-47.1.67-50.2l-1.89-1.97-2.6-.83-6.61-2.11-2.22-.71-2.32.28c-7.4.89-12.96,6.06-16.53,15.36-2.13,5.54-3.4,12.01-4.53,17.72-.69,3.47-1.39,7.07-2.07,9.06-9.32,27.67-26.96,45.65-53.95,54.96-1.34.46-3.87.91-6.33,1.34-9.31,1.65-24.9,4.41-26.23,19.14-.63,6.96,2.08,11.53,4.47,14.14,4.09,4.47,10.39,6.74,18.74,6.74M637.14,499.74c-.92,0-2.06-.22-3.38-.47-1.8-.34-4.03-.77-6.54-.77-1.23,0-2.44.1-3.6.3-4,.69-8.43,3.27-20.04,10.45-5.91,3.66-13.27,8.21-16.6,9.56-13.52,5.49-26.59,8.15-39.95,8.15-9.8,0-19.75-1.41-30.4-4.32l-5.72-1.56-4.36,4.02c-19.98,18.39-51.96,40.31-90.85,40.31-4.11,0-8.27-.25-12.37-.74-1.88-.22-6.15-2.18-9.27-3.6-6.07-2.77-12.34-5.64-18.54-5.64-6.93,0-12.68,3.73-15.39,9.98-2.46,5.68-2.27,11.86.54,17.39,2.63,5.18,7.21,9.2,12.09,12.17-.84.59-1.76,1.2-2.67,1.8-4.09,2.71-8.74,5.79-11.77,10.58-2.51,3.96-5.69,12.16,1.15,22.54l2.39,3.62,4.23.94c2.49.56,4.99.84,7.44.84,18.22,0,29.53-15.08,37.8-26.1.77-1.03,1.53-2.04,2.27-3.01,1.05.02,2.11.04,3.15.04,26.77,0,53.2-7.55,80.81-23.08,2.78-1.57,7.78-5.13,15.66-10.8,3.2-2.3,7.29-5.24,9.71-6.9,1.93.3,4.87.97,7,1.44,5.32,1.2,10.82,2.43,15.5,2.43h.2c12.96-.1,37.36-5.53,48.46-9.23,7.64-2.55,15.31-7.23,22.08-11.36,4.89-2.98,9.95-6.07,12.94-7.01,1.44-.45,5.13-1.09,8.7-1.71,16.26-2.81,38.52-6.66,47.18-20.32,3.47-5.47,4.35-11.83,2.54-18.37-2.24-8.13-8.6-12.99-17.01-12.99-7.2,0-14.82,3.59-22.2,7.07-3.46,1.63-8.7,4.1-10.63,4.32-.18.02-.37.03-.58.03M894.11,528.89c-2.88,2.39-4.59,3.21-5.33,3.49-.74-.58-1.93-1.79-2.76-2.65-3.95-4.05-9.92-10.17-20.1-10.17-.39,0-.79,0-1.2.03-9.72.47-13.86,5.09-15.62,8.88-4.3,9.25,2.45,18.11,8.41,25.92,1.51,1.98,3.8,4.98,4.29,6.08,3.77,8.86,4.42,18.4,1.83,26.88-.32.77-1.49,2.82-2.35,4.33-4.35,7.61-9.76,17.08-6.43,25.76,1.62,4.22,4.99,7.36,9.5,8.84,2.27.75,4.59,1.13,6.9,1.13,5.9,0,14.51-2.44,21.99-14.06,7.82-12.14,12.21-31.38,11.3-45.53,11.23-6.14,22.59-18.67,25.74-28.43,2.71-8.41.45-16.24-6.07-20.93-3.31-2.39-6.85-3.6-10.53-3.6-9.32,0-14.72,7.43-17.94,11.88-.52.71-1.28,1.76-1.64,2.17M503.41,630.46c-.47.47-1.69,1.46-4.43,2.75-.61.26-2.53.68-3.8.96-5.53,1.22-13.1,2.89-17.12,9.52-1.57,2.59-3.11,6.88-1.56,12.61,2.68,9.9,10.48,15.81,20.88,15.81,13.42,0,30.42-10.37,39.69-21.09,9.22,2.97,19.28,4.47,30.01,4.47s22.23-1.57,33.4-4.65c.37-.1,36.96-10.71,42.11-29.72,1.76-6.51-.07-12.96-5.14-18.16-2.14-2.2-5.98-4.82-12.05-4.82-8.22,0-17.18,4.87-25.85,9.58-3.22,1.75-6.87,3.73-8.53,4.27-7.78,2.53-16.77,3.93-25.32,3.93-12.06,0-22.15-2.8-28.42-7.88-.81-.65-1.82-1.98-2.8-3.27-2.64-3.46-7.07-9.25-14.86-9.25-7.92,0-13.63,6.19-17.71,11.58l-1.21,1.6-.55,1.92c-1.83,6.38.37,12,1.98,16.11.45,1.16,1.1,2.81,1.3,3.74M384.62,696.27c22.01,0,41.54-8.63,53.58-23.68l2.9-3.63-.66-4.6c-2.37-16.47-14.25-17.75-17.83-17.75-6.52,0-12.76,3.21-18.79,6.32-3.03,1.56-6.81,3.51-8.62,3.82-3.52.6-6.67.89-9.63.89-8.6,0-15.56-2.46-23.27-8.24-1.12-.84-3.02-2.88-4.69-4.69-5.57-6-12.49-13.47-22.04-13.47-1.84,0-3.66.29-5.4.87-5.84,1.92-9.9,6-11.44,11.5-3.18,11.35,6.32,24.1,10.55,29.05,12.62,14.78,33.31,23.61,55.34,23.61M314.59,187.1c3.31,0,7.11.19,11.14.39,4.04.2,8.22.41,12.17.43-2.22,1.39-4.23,3.05-6.02,4.94-7.42,7.87-6.11,14.64-4.67,17.98,4.3,9.95,17.34,10.79,30.34,10.79,1.09,0,2.15,0,3.15-.01.85,0,1.66-.01,2.41-.01,1.96,0,2.61.04,2.81.06,8.32,1.12,19.66,8.4,25.85,15.95-1.75,2.31-3.56,4.63-5.43,7.02-6.87,8.78-13.97,17.87-19.24,28.7-27.26,56.09-23.63,127.81,8.93,190.2-6.34,1.98-12.85,4.44-19.67,7.44-3.87,1.7-8.68,4.51-13.77,7.48-5.2,3.03-14.81,8.64-18.06,9.25-12.1-.25-34.57-12.14-45.3-21.94-1.98-1.81-6.08-7.47-8.8-11.21-4.99-6.88-7.13-9.75-10.01-11.49-3.41-2.08-7.28-3.18-11.19-3.18-9.12,0-16.31,5.94-17.88,14.79-1.67,9.4,2.06,19.63,11.1,30.42,10.42,12.44,28.8,25.89,45.78,32.59-1.75,2.04-3.24,3.9-4.56,5.55-2.52,3.15-4.34,5.42-6,6.47-.95.6-2.8,1.4-7.79,1.4-2.77,0-6.14-.24-10.32-.74-17.23-2.04-34.69-11.84-46.73-26.22-.49-.59-1.7-2.62-2.58-4.1-4.71-7.93-11.17-18.79-22.56-18.79-3.25,0-8.12,1-12.86,5.76-9.76,9.82-4.35,22.58-.84,29.7-3.54,1.2-7.56,2.34-9.26,2.57-1.45-.12-5.29-1.3-7.85-2.09-5.52-1.7-11.22-3.45-16.53-3.45-7.66,0-13.52,3.92-15.67,10.48-2.06,6.28-1.13,12.58,2.61,17.74,9.46,13.06,33.58,14.07,40.75,14.07,2.79,0,5.25-.15,7.31-.44,6.36-.9,13.26-4.22,19.36-7.14,1.32-.63,2.92-1.4,4.26-2,.11.11.22.23.32.33,1.69,1.74,3.79,3.9,6.57,5.51,16.39,9.52,31.71,14.86,47.47,16.45l-8.79,28.65c-1.61.05-3.26.08-4.93.08-23.35,0-50.19-4.99-71.8-13.36-17.56-6.8-40.49-19.09-50.03-39.1-1.14-2.4-2.21-6.93-3.14-10.93-1.51-6.45-2.71-11.55-5.39-15.3-2.3-3.21-6.11-5.69-10.94-8.83-3.08-2-6.9-4.49-8.56-6.18-17.15-17.49-23.31-43.38-15.32-64.42.96-2.52,4.03-7.1,6.5-10.78,4.78-7.12,7.52-11.37,8.21-15.94.8-5.26-.66-10.3-1.95-14.75-.6-2.07-1.35-4.64-1.36-5.88-.19-13.23,9.2-32.38,18.09-41.96,1.64-1.76,6.6-5.35,10.22-7.97,8.01-5.79,11.95-8.74,13.96-12.58,2.1-4.01,3.15-9.26,4.38-15.34.9-4.48,1.92-9.56,3.22-12.74,4.77-11.67,14.18-24.11,25.84-34.12,12.05-10.36,25.23-17.16,37.09-19.16,1.84-.31,5.51-.36,8.74-.41,8.83-.13,14.47-.35,18.84-3.04,3.23-1.99,4.94-5.02,8.7-11.68,1.4-2.48,3.75-6.63,4.65-7.72,8.54-10.22,19.61-19.19,32.03-25.92,12.66-6.87,26.12-11.06,38.92-12.12,1.12-.09,2.5-.14,4.1-.14M202.8,309.06c-13.81,4.9-29.02,18.52-35.12,30.19-6.19,11.84-2.7,19.95-.07,23.73l1.09,1.56,1.48,1.04c-1.49-.48-3.04-.72-4.62-.72-5.06,0-9.84,2.49-13.45,7-5.56,6.96-7.88,17.9-6.6,30.25-15.97,8.75-27.88,21.73-33.24,36.5-5.29,14.55-4.1,30.13,3.42,45.04,2.83,5.61,12.2,17.2,23.11,17.2,6.8,0,12.37-4.39,14.55-11.46,2.07-6.71-.24-13.09-2.27-18.72-2.71-7.49-5.04-13.96-.75-22.78,5.08-10.43,17.68-15.72,37.44-15.72,6.34,0,13.2.57,20.37,1.7l10.26,1.61,1.94-10.21c1.82-9.57-1.52-16.08-4.64-19.85-7.18-8.68-19.95-11.27-31.25-11.97-.26-10.48-2.64-18.24-7.11-23.16-.67-.73-1.38-1.4-2.13-1.99,2.1.79,4.25,1.19,6.43,1.19,9.89,0,15.97-7.9,20.42-13.66,1.73-2.25,3.52-4.57,4.97-5.77,8.1-6.69,18.56-10.38,29.47-10.38,8.86,0,17.48,2.44,24.78,6.94.3,19.11,5.49,37.71,14.85,52.92,1.26,2.05,5.86,9.23,12.1,15.73,7.87,8.19,15.3,12.17,22.7,12.17,4.31,0,8.4-1.43,11.85-4.12,5.28-4.13,6.64-9.07,6.86-12.48.59-9.5-6.89-17.02-12.9-23.06-1.63-1.63-3.85-3.87-4.47-4.83-10.71-16.55-14.69-40.26-9.66-57.64.35-1.2,2-4.23,3.21-6.44,4.43-8.11,9.45-17.29,4.52-25.61-1.6-2.69-5.57-7.2-14.24-7.21-1.48,0-3.04.12-4.78.38-10.84,1.58-18.37,12.18-22.39,22.19-8.22-2.75-16.75-5.27-26.19-5.87,1.56-8.44,5.32-15.87,11.13-21.86,9.12-9.39,23.04-14.77,38.21-14.77,2.53,0,5.11.15,7.68.44,4.26.49,10.48,3.88,15.48,6.6,6.37,3.47,11.87,6.47,17.49,6.47.43,0,.86-.02,1.28-.05,12.85-1.07,15.41-9.72,15.88-12.34,1.19-6.52-2.04-13.43-9.87-21.12-4.72-4.64-10.66-9.07-14.77-11.02-11.29-5.35-23.37-8.06-35.89-8.06-24.8,0-49.49,11.1-66.05,29.68-13.22,14.84-20.33,33.12-20.52,52.34M769.87,672.41c18.68,12.72,39.63,19.41,61.02,19.41,3.91,0,7.87-.23,11.76-.69,5.84-.68,15.49-3.11,23.86-7.01,4.45-2.07,7.93-4.28,10.63-6.54-7.59,28.35-22.18,52.65-42.46,70.15-24.72,21.33-56.95,32.15-95.78,32.15-17.65,0-36.8-2.24-56.94-6.66l-19.7-4.32,7.43,18.75c4,10.1,9.17,20.33,14.65,31.16,9.68,19.15,19.64,38.85,22.44,57.13-2.72,0-5.45,0-8.17,0-5.49,0-10.97,0-16.46,0-4.17,0-8.33,0-12.5,0-10.62-37.16-33.46-72.57-63.57-98.21-1.45-1.24-4.18-3.19-10.22-7.48-8.36-5.95-20.99-14.93-31.96-23.61-7.44-5.89-12.2-10.13-15.23-13.1,14.4-6.87,27.4-17.37,39.47-28.32,8.57,1.06,16.9,1.59,24.84,1.59,15.82,0,30.63-2.12,44.02-6.3,5.82-1.82,13.13-5.65,20.86-9.7,5.33-2.79,14.21-7.44,16.99-7.99,0,0,.02,0,.02,0,.67,0,1.97.37,3.23.72,2.23.63,5.01,1.41,8.27,1.45,1.3.01,2.59.02,3.87.02,21.89,0,40.71-2.25,59.62-12.6M552.41,137.21c-10.87,0-21.81,1.66-32.47,5.1-8.25,2.66-24.62,14.58-28.14,14.91-.18.02-.37.03-.57.03-6.51,0-19.31-9.42-26.18-11.79-9.93-3.43-20.63-5.03-31.47-5.03-21.56,0-43.68,6.34-61.38,17.2-6.21,3.81-19.67,17.66-22.32,18.45-2.88.85-6.83,1.12-11.23,1.12-7.7,0-16.81-.83-24.07-.83-1.79,0-3.47.05-4.99.18-29.52,2.46-59.44,19.29-78.29,41.86-3.12,3.74-9.04,16.09-10.75,17.14-3.51,2.16-17.25.91-23.74,2.01-29.07,4.9-60.04,32.77-71.08,59.8-3.36,8.23-4.4,21.86-7.17,27.16-1.77,3.38-17.6,12.9-22.54,18.22-10.84,11.68-21.18,33.28-20.95,49.41.09,5.91,4.25,13.5,3.44,18.87-.71,4.72-11.26,16.97-14.13,24.52-9.84,25.92-1.51,56.17,17.69,75.74,4.89,4.99,16.17,10.56,18.44,13.74,2.83,3.95,4.21,17.53,7.58,24.6,19.32,40.55,85.75,58.57,131.51,58.57,4.56,0,8.92-.18,13-.53l15.1-49.23c-1.4.06-2.79.1-4.16.1-18.98,0-35.89-5.97-52.3-15.5-3.83-2.23-6.93-8.07-11.04-8.16-.02,0-.04,0-.06,0-4.15,0-17.67,8.89-26.3,10.12-1.51.21-3.5.33-5.8.33-13.56,0-37.61-4.17-33.17-17.74.75-2.27,2.77-3.1,5.48-3.1,7.04,0,18.7,5.55,24.48,5.55.15,0,.3,0,.44-.01,3.84-.21,18.05-4.63,20.95-7.03,3.08-2.55,1.3-2.2.42-4.59-2.38-6.44-10.74-17.24-4.21-23.81,1.82-1.83,3.57-2.6,5.25-2.6,7.32,0,13.2,14.62,16.92,19.05,13.2,15.77,32.95,27.53,53.69,29.99,4.59.54,8.38.81,11.58.81,17.87,0,17.16-8.33,32.13-23.24,3.16-3.15,7.96-1.77,6.48-7.37-.34.02-.69.03-1.05.03-21.53,0-69.34-33.35-65.54-54.7.73-4.09,3.87-5.94,7.32-5.94,1.9,0,3.88.56,5.61,1.61,2.45,1.49,11.91,16.68,17.15,21.46,11.64,10.64,36.95,24.65,52.74,24.75.01,0,.03,0,.04,0,7.53,0,26.6-13.55,35.91-17.64,10.12-4.45,20.63-8.14,31.48-10.38-33.76-56.58-45.04-131.43-15.41-192.39,7.21-14.83,18.7-26.65,27.98-39.99-5.95-12.59-23.88-25.2-37.43-27-.9-.12-2.37-.15-4.19-.15-1.63,0-3.53.02-5.56.02-11.59,0-27.23-.74-17.86-10.68,4.71-5,11.53-7.1,19.28-7.1,22.92,0,53.91,18.39,62.12,34.37,6.47-4.27,25.83-13.03,38.59-13.03,5.04,0,9.06,1.37,10.83,4.93,6.61,13.25-17.06,13.21-26.19,16.78-62.55,24.48-72.91,117.09-57.01,173.68,2.44,8.67,17.82,47.36,23.06,52.02,2.04,1.82,4.57,2.43,7.29,2.43,5.38,0,11.53-2.39,16.26-2.54,2.57-.08,5.15-.11,7.73-.11,8.02,0,16.07.3,24.08.3,2.66,0,5.32-.03,7.97-.12-26.34-67.7-24.53-159.44,33.32-210.17,4.66-4.08,18.02-10.94,20.12-14.2,2.83-4.39,3.59-17.28,6.95-25.23,7.7-18.2,26.49-34.76,45.16-40.66,3.81-1.2,11.49-3.22,18.09-3.22,6.67,0,12.24,2.06,11.61,9.12-.8,8.91-19.77,8.63-28.49,12.48-24.69,10.92-35.41,37.78-36.27,63.49-74.54,25.93-76.44,132.76-53.31,195.54.13.1.31.14.55.14,3.98,0,22.47-13.01,26.5-14.9,26.85-12.58,56.78-19.27,86.43-19.77,6.6-35.18,26.55-74.76,61.25-87.81,20.83,8.98-8.72,24.44-17.1,34.36-7.05,8.34-26.71,42.97-24.43,52.42,1.21,5.04,12.75,2.96,17.49,3.93,10.09,2.07,52.34,12.96,55.96,21.43,3.93,9.18.27,12.18-6.43,12.18-11.58,0-32.25-8.97-38.42-10.39-14.59-3.36-29.61-5.06-44.61-5.06-46.33,0-92.49,16.2-125.15,49.63-9.88-1.66-19.99-2.46-30.2-2.46-61.04,0-125.19,28.96-158.85,79.36-20,29.95-29.43,78.26,5.31,101.16,4.05,2.67,11.19,3.67,13.04,5.2,1.44,1.19,5.22,10.71,8.26,14.27,19.46,22.77,47.36,35.77,76.52,35.77,8.1,0,16.3-1,24.45-3.08,7.1-1.81,16.87-8.9,22.67-8.9.15,0,.3,0,.44.01,4.59.31,15.65,6.38,22.26,7.92,6.86,1.61,13.74,2.36,20.58,2.36,34.19,0,67.04-18.91,88.6-44.78,12.56,3.02,24.84,4.73,37.02,4.73,14.37,0,28.61-2.39,43-7.84,8.57-3.25,28.46-16.9,33.79-17.87.7-.13,1.49-.18,2.36-.18,7.56,0,21.06,4.28,31.53,4.28.74,0,1.46-.02,2.17-.07,41.45-2.68,72.34-43.3,82.41-80.62,2.23-.6,4.14-.87,5.76-.87,15.36,0,4.85,24.75.8,35.32l-27.91,41.78c16.55,7.34,29.4,12.17,44.67,12.17,6.07,0,12.52-.76,19.73-2.43,3.77-.87,12.19-5.61,17.92-5.61,3.12,0,5.45,1.4,5.78,5.6.94,11.66-24.55,19.04-33.64,20.11-3.53.41-7.03.61-10.52.61-21.98,0-42.93-8-60.43-21.51-19.18,12.38-38.25,14.7-60.2,14.7-1.24,0-2.49,0-3.75-.02-3.8-.04-7.44-2.17-11.62-2.17-.36,0-.72.02-1.08.05-7.6.7-29.21,14.76-39.99,18.12-13.2,4.12-27,5.81-40.82,5.81-9.52,0-19.05-.8-28.39-2.17-14.65,13.58-31.61,28.02-50.85,34.02-7.84,8.47,59.46,52.93,65.38,57.97,30.17,25.69,53.19,62.16,62.27,100.89l1.58-.04c1-.06,2.24-.08,2.72-.08,5.48-.01,10.96-.02,16.45-.02,10.97,0,21.93.02,32.9.02.18,0,.46.01.78.01,1.02,0,2.45-.11,2.45-1.07,0-33.9-26.22-70.64-38.62-101.91,19.41,4.26,39.45,6.91,59.24,6.91,37.08,0,73.29-9.3,102.79-34.75,31.45-27.14,47.79-66.47,51.39-107.38,63.95-22.1,85.22-100.34,60.89-159.48-4.02-9.77-24.41-38.61-25.01-41.56-1.09-5.37,3.87-17.55,3.69-24.91-.76-31.87-29.05-71.17-59.57-81.12.31-49.25-35.28-96.36-80.41-113.77-8.28-3.19-29.32-6.22-33.54-9.37-3.45-2.58-11.46-20.35-18.25-26.81-22.75-21.67-54.53-30.15-85.34-30.15-3.05,0-6.1.08-9.12.25-5.53.3-14.2,3.96-19.41,3.96-.57,0-1.11-.04-1.59-.14-4.9-1.01-11.28-9.34-15.86-12.08-17.47-10.46-37.21-16.05-57.17-16.05h0ZM568.29,341.93c-1.33,0-2.82-.38-4.5-1.23-14.09-7.1,7.47-50.33,15.08-60.08,5.43-6.95,29.67-26.09,31.02-29.04,4.19-9.12-8.48-34.49,8.61-34.53h.02c12.11,0,9.39,19.61,9.66,28.11,11.49-5.9,26.6-9.1,41.38-9.1,11.31,0,22.43,1.88,31.55,5.88,8.58,3.76,17.82,9.65,14.83,20.21-.49.83-1.56,1.18-3.04,1.18-7.34,0-24.69-8.67-30.22-9.41-4.11-.55-8.2-.81-12.25-.81-38.82,0-73.79,24.48-88.38,60.73-3.2,7.95-4.15,28.08-13.78,28.08h0ZM214,318.03c-5.24-45.24,33.68-80.27,75.37-80.27,10.48,0,21.13,2.21,31.3,7.03,7.32,3.46,29.47,22.69,12.46,24.09-.13.01-.26.02-.39.02-6.36,0-20.13-11.68-31.76-13.01-3-.34-5.96-.51-8.89-.51-33.76,0-61.91,22.36-60.85,58.45,2.52-.34,4.97-.5,7.36-.5,13.33,0,24.85,4.87,37.69,9.08.73-8.26,7.62-24.07,16.59-25.38,1.22-.18,2.29-.26,3.23-.26,13.37,0-1.43,17.34-3.8,25.55-6.14,21.24-.99,47.99,10.96,66.45,4.49,6.94,22.49,18.58,12.91,26.08-1.64,1.28-3.41,1.84-5.24,1.84-9.83,0-21.53-16.08-25.66-22.79-9.63-15.65-13.89-34.54-13.21-52.83-10.25-8.07-22.9-12.13-35.56-12.13s-25.92,4.26-36.3,12.84c-6.53,5.4-11.31,16.97-18.55,16.97-1.61,0-3.33-.57-5.23-1.9-8.51-12.22,22.19-38.93,36.09-38.93.52,0,1.02.04,1.49.11h0ZM768.54,404.29c-10.75,0-1.72-19.56-1.07-25.22,2.64-22.9-13.45-55.4-34.39-66.1-7.58-3.87-41.49-6.34-29.27-17.92,2.85-2.7,6.81-3.82,11.36-3.82,15.61,0,38.11,13.25,46.12,21.42,11.57,11.81,15.09,25.72,22.74,39.63,7.31-1.93,14.15-2.82,20.51-2.82,47.71,0,68.27,50.54,53.18,97.37.56-.04,1.11-.06,1.67-.06,19.56,0,42.34,23.27,41.45,41.94-.28,5.76-4.41,8.86-8.8,8.86-2.23,0-4.52-.8-6.41-2.44-4.97-4.33-3.84-22.5-19.54-29.81-4.41-2.05-7.53-2.76-10.15-2.76-4.97,0-8.14,2.53-14.89,3.2-.38.04-.74.06-1.08.06-13.85,0,3.54-30.46,4.65-39.6,3.92-32.32-11.71-59.97-40.7-59.97-5.48,0-11.44.99-17.84,3.12-3.46,2.34-2.71,31.08-13.51,34.23-1.59.46-2.92.68-4.04.68h0ZM138.8,490.11c-4.7,0-11.32-6.93-13.53-11.3-15.5-30.75,3.73-58.34,32.12-70.57-4.51-19.92,2.07-32.66,8.18-32.66,4.98,0,9.64,8.45,7.75,28.37.86-.01,1.78-.02,2.74-.02,13.99,0,37.08,1.8,33.75,19.32-6.58-1.04-14.22-1.83-22.03-1.83-18.88,0-38.76,4.64-47.09,21.76-9.96,20.45,5.15,34.15,2.41,43.04-.86,2.8-2.43,3.89-4.3,3.89h0ZM696.38,568.78c-7.42,0-13.15-2.2-12.53-9.18.82-9.07,17.64-8.64,25.37-11.31,30.43-10.5,50.36-31.23,60.62-61.68,3.27-9.72,4.41-33.73,14.24-34.91l6.61,2.11c5.99,6.24-.73,31.36-3.21,39.72-9.04,30.45-33.22,58.65-63.44,69.58-4.71,1.7-17.71,5.67-27.67,5.67h0ZM637.14,510.47c.58,0,1.17-.03,1.78-.1,8.1-.92,22.81-11.32,31.61-11.31,3.21,0,5.64,1.39,6.67,5.12,5.99,21.71-40.82,24.04-51.29,27.32-9.04,2.83-22.96,14.35-35.21,18.43-10.97,3.65-33.96,8.6-45.15,8.68-.04,0-.08,0-.12,0-6.64,0-18.61-4.05-24.06-4.05-.49,0-.93.03-1.31.11-1.68.32-22.7,16.29-27.77,19.14-23.52,13.23-48.62,21.7-75.55,21.7-2.69,0-5.41-.08-8.14-.26-9.44,11.15-18.91,29.33-35.08,29.33-1.63,0-3.33-.18-5.1-.58-8.29-12.58,7.46-16.44,14.4-23.43,1.1-1.11,7.56-9.46,7.19-9.94-8.84-2.01-24.71-10.17-20.05-20.94,1.1-2.55,3.07-3.51,5.54-3.51,7.26,0,18.97,8.27,26.54,9.17,4.6.55,9.14.81,13.64.81,37.24,0,70.91-18.11,98.11-43.14,11.4,3.11,22.38,4.7,33.22,4.7,14.7,0,29.14-2.92,43.98-8.94,8.55-3.47,29.93-18.6,34.45-19.38.6-.1,1.18-.15,1.77-.15,3.13,0,6.2,1.24,9.92,1.24h0ZM888.46,543.23c3.21,0,7.22-1.68,12.68-6.24,3.22-2.69,6.88-11.42,12.55-11.42,1.31,0,2.72.46,4.26,1.57,11.37,8.19-15.59,33.66-25.64,33.66h0c5.81,12.78-3.7,55.85-21.04,55.85-1.15,0-2.33-.19-3.55-.59-9.21-3.03,4.44-19.93,6.14-25.44,3.49-11.29,2.44-23.53-2.17-34.37-3.41-8.02-23.36-25.14-6.43-25.96.23-.01.45-.02.67-.02,10.8,0,13.61,12.94,22.54,12.94h0ZM497.38,661.38c-5.02,0-9-2.23-10.53-7.88-2.31-8.54,11.1-7.96,16.66-10.57,20.76-9.74,4.42-20.59,6.94-29.36,4.08-5.39,6.9-7.33,9.16-7.33,4.11,0,6.34,6.42,10.91,10.12,9.13,7.41,22.16,10.27,35.17,10.27,10.17,0,20.34-1.75,28.64-4.46,7.11-2.32,22.42-13.33,31.06-13.33,1.78,0,3.29.47,4.37,1.58,12.82,13.14-23.1,27.55-32.15,30.05-9.71,2.68-20.14,4.26-30.54,4.26-11.79,0-23.55-2.03-34.16-6.8-3.35,9.11-22.8,23.43-35.53,23.43h0ZM384.62,685.55c-17.95,0-36.06-6.81-47.19-19.85-4.38-5.13-14.61-19.89-3.92-23.4.68-.22,1.37-.33,2.06-.33,7.26,0,14.56,11.71,20.31,16.02,9.61,7.2,18.92,10.38,29.7,10.38,3.62,0,7.42-.36,11.44-1.05,7.56-1.29,18.4-9.98,25.6-9.98,3.6,0,6.3,2.18,7.21,8.55-10.63,13.29-27.84,19.66-45.21,19.66h0Z"/></svg>