<?xml version="1.0" encoding="UTF-8"?><svg id="Layer_2" xmlns="http://www.w3.org/2000/svg" viewBox="0 0 1024 1024"><defs><style>.cls-1{fill:#92d4dc;}.cls-2{fill:#fff;}.cls-3{fill:#294255;}</style></defs><path class="cls-2" d="M766.71,203.2c-1.03,1.37-3.55.97-4.2,4.51-1,5.45,2.16,20.21,1.71,28.43-3.37,62.09-47.45,117.41-86.72,162.19,6.7,13.99,12.72,28.35,18.08,42.91,4.48,12.17,14.43,35.56,15.96,47.28,1.2,9.2-11.37,10.94-14.71,5.02l-29.43-83.41c-2.39-.64-2.62.62-3.97,1.55-8.32,5.74-39.68,37.94-46,37.8-4.77-.1-9.5-9.62-5.62-13.47l47.53-41.07c-43.69-86.79-122.33-157-217.99-181.59-70.06-18.01-151.71-15-217.41,16.91-5.82,2.82-31.17,17.53-32.92,22.27-.58,1.59,1.08,9.89.79,13.55-1.47,18.87-21.89,26.55-37.98,18.64-21.21-10.43-13.68-47.95,13.34-47.55,4.36.06,11.42,4.2,13.6,3.72,2.57-.56,13.48-10.14,17.44-12.56,80.26-49.12,189.24-50.82,276.59-19.85,85.19,30.2,153.45,96.11,195,174.87,43.14-45.62,87.94-106.9,78.21-172.98-30.18-.58-32.48-46.89-3.54-50.55,26.28-3.32,37.5,23.03,22.24,43.38Z"/><path class="cls-2" d="M255.43,481.38c-2.75,3.98-24.94,17.08-31.04,21.76-46.71,35.82-94.06,80.84-111.32,138.5,22.78,12.28,15.61,46.93-11.26,48.06-24.96,1.05-36.52-33.94-15.84-46.68,4.43-2.73,10.85-2.95,13.08-5.34,1.9-2.04,2.59-9.5,3.83-12.64,22.46-56.76,82.79-118.09,135.04-149.67,2.42-1.46,5.73-4.51,8.09-5.13,6.81-1.79,13.32,5.51,9.42,11.14Z"/><path class="cls-1" d="M622.59,809.44c-6.56-28.01-23.32-55.13-45.96-74.41-.68-.57-3.81-2.8-6.83-4.95-35.65-25.36-46.79-35.7-47.67-44.28-.32-3.08.63-5.98,2.67-8.18l.19-.2c-9.89,3.62-20.14,5.55-30.28,5.55-6.09,0-12.14-.7-18-2.07-3.1-.72-6.59-2.19-9.96-3.61-1.89-.8-4.66-1.96-5.96-2.32-1.31.35-4.15,1.75-5.9,2.63-3.14,1.56-6.4,3.18-9.68,4.02-6.94,1.77-14.07,2.67-21.19,2.67-25.29,0-49.42-11.27-66.21-30.91-1.96-2.29-3.66-5.65-5.15-8.62-.2-.4-.44-.87-.66-1.3-.2-.06-.41-.12-.59-.18-2.56-.78-5.74-1.75-8.49-3.57-10.95-7.22-18.13-17.92-20.76-30.94-4.4-21.78,4.48-45.18,14.26-59.82,2.08-3.11,4.31-6.14,6.68-9.08-2.5,2.3-5.49,4.21-9.66,5.31l-15.94,51.97-5.64.49c-3.43.3-7.1.45-10.89.45-34.69,0-92.72-13.47-110.4-50.58-1.67-3.51-2.68-7.79-3.65-11.93-.44-1.88-1.08-4.61-1.55-5.9-.92-.71-2.75-1.9-4.03-2.73-3.26-2.12-6.95-4.51-9.54-7.15-17.91-18.26-24.21-45.61-15.68-68.07,1.43-3.77,4.18-7.86,6.84-11.82,1.25-1.85,3.06-4.55,3.73-5.88-.11-.97-.65-2.82-1.02-4.1-.79-2.72-1.68-5.8-1.73-9.02-.23-15.6,9.42-34.55,18.62-44.46,2.41-2.6,6.32-5.42,10.47-8.42,1.99-1.44,4.87-3.52,6.11-4.61.52-1.53,1.16-4.72,1.6-6.93.85-4.24,1.82-9.04,3.43-12.99,10.19-24.94,37.4-47.72,61.95-51.86,2.7-.45,5.94-.5,9.37-.55,1.59-.02,3.92-.06,5.57-.17.53-.91,1.14-1.98,1.61-2.82,2.23-3.94,3.8-6.66,5.37-8.54,16.69-19.98,42.34-33.66,66.96-35.71,1.35-.11,2.86-.17,4.6-.17,3,0,6.33.17,9.55.33,3.16.16,6.42.32,9.27.32s4.51-.17,5.5-.33c1.19-.96,3.38-2.93,5.05-4.44,4-3.61,8.14-7.35,11.3-9.28,15.44-9.47,34.04-14.69,52.38-14.69,9.7,0,18.9,1.48,27.34,4.39,2.78.96,5.86,2.67,9.12,4.49,2.17,1.21,5.94,3.31,8,4.04,1.44-.77,3.72-2.15,5.51-3.23,5.22-3.15,10.62-6.41,14.97-7.81,9.04-2.91,18.44-4.39,27.96-4.39,17.05,0,33.99,4.75,49.01,13.74,2.19,1.31,4.23,3.22,6.19,5.06,1.06.99,2.72,2.55,3.72,3.26,1.26-.18,3.49-.78,5.04-1.21,3.02-.82,6.14-1.67,9.1-1.83,2.52-.14,5.08-.2,7.58-.2,29.23,0,54.98,9.19,72.51,25.89,3.8,3.61,7.3,9.59,10.39,14.86,1.07,1.83,2.47,4.22,3.31,5.43,2.14.78,7.14,1.9,10.58,2.68,5.17,1.16,10.04,2.26,13.45,3.57,37.9,14.62,65.73,52.25,68.08,91,11.14,5.06,21.83,14.15,30.56,26.12,9.95,13.64,15.85,29.27,16.17,42.89.09,3.8-.87,7.9-1.8,11.86-.42,1.77-1,4.29-1.17,5.72,1.12,1.92,3.61,5.76,5.67,8.95,6.37,9.85,11.4,17.75,13.33,22.45,11.48,27.9,11.02,60.76-1.22,87.89-9.62,21.31-25.95,37.47-46.34,46-4.17,34.37-19.14,64.16-42.51,84.32-22.46,19.38-51.35,29.21-85.85,29.21-10.18,0-20.91-.87-32.05-2.58,1.39,2.83,2.86,5.73,4.35,8.68,9.81,19.41,19.96,39.47,19.96,59.8,0,4.58-3.54,9.23-10.3,9.23-.21,0-.4,0-.57,0h-25.76c-4.28-.01-8.56-.01-12.84,0-.29,0-1.04,0-1.63.04h-.31s-8.05.21-8.05.21l-1.56-6.64ZM654.55,631.43c.06,0,.12-.02.18-.03-.05,0-.09,0-.12,0-.02,0-.04.01-.06.02ZM719.46,621.92l3.93-5.89c-1.79,1.62-3.64,3.17-5.56,4.63l1.63,1.26ZM523.39,602.81c.24,1,.43,2.07.53,3.21l.81-2.19c-.45-.33-.9-.67-1.34-1.02ZM426.08,572.2c.33.61.56,1.22.71,1.82l1.32-1.56c-.38-.04-.76-.08-1.14-.13-.3-.04-.59-.08-.89-.13ZM355.36,525.87c-2.38,2.4-4.2,4.57-5.79,6.54,2.33-2.48,4.76-4.88,7.29-7.21-.34.17-.7.33-1.07.49-.13.05-.29.12-.42.18ZM270.33,523.96c.48.01.94.05,1.38.11-.95-.94-1.87-1.91-2.76-2.9.04.91-.07,1.88-.39,2.9.52-.07,1.03-.11,1.54-.11h.23ZM604.11,520.82c.13-.03.27-.05.41-.08-.07,0-.13-.02-.19-.02-.07.03-.14.07-.22.11ZM362.97,511.91c.49,1.96.94,5.56-1.02,8.84,4.66-3.89,9.6-7.53,14.78-10.88-3.49,1.55-6.45,2.4-9.19,2.4-1.47,0-3-.13-4.57-.35ZM404.97,495.28c-1.95.76-3.94,1.58-5.98,2.48-.48.21-1.03.48-1.63.79,2.5-1.15,5.04-2.23,7.6-3.26ZM432.89,486.81c2.16-.46,4.34-.88,6.52-1.25-3.4-.12-6.39-1.04-8.91-2.75l2.39,4ZM480.9,483.72c2.49.21,4.95.49,7.39.82.38-.36.76-.72,1.14-1.07l-5.18.17c-1.08.04-2.19.06-3.35.08ZM456.62,483.52c-1.22.01-2.37.04-3.47.07-.71.02-1.81.23-2.99.48,2.15-.23,4.3-.41,6.46-.56ZM491.79,472.22l2.66,6.83c2.73-2.28,5.55-4.45,8.48-6.5-1.99.84-3.53,1.16-5.08,1.16-2,0-3.88-.61-5.44-1.77l-1.02-.76c.13.35.27.69.4,1.04ZM522.13,461.26s-.01,0-.02,0c.01,0,.02-.01.03-.02,0,0-.01,0-.02,0ZM593.17,446.33c1.99.05,3.98.14,5.96.26-2.11-1.06-3.94-2.7-5.04-5.2l-.93,4.94ZM721.53,397.81s.02-.02.03-.03l-.04-.08s.01.08.02.11Z"/><path class="cls-3" d="M545.53,221.43c15.6,0,31.04,4.37,44.7,12.55,3.58,2.15,8.57,8.66,12.4,9.45.38.08.79.11,1.24.11,4.07,0,10.85-2.86,15.17-3.09,2.36-.13,4.75-.19,7.13-.19,24.09,0,48.93,6.63,66.73,23.57,5.3,5.05,11.57,18.94,14.27,20.96,3.29,2.47,19.75,4.83,26.22,7.33,35.29,13.61,63.11,50.45,62.87,88.96,23.86,7.78,45.99,38.51,46.58,63.43.14,5.76-3.74,15.28-2.89,19.48.47,2.31,16.41,24.86,19.55,32.5,19.02,46.25,2.4,107.42-47.61,124.7-2.81,31.99-15.59,62.74-40.18,83.96-23.06,19.9-51.37,27.17-80.37,27.17-15.48,0-31.14-2.07-46.32-5.4,9.69,24.45,30.2,53.18,30.2,79.68,0,.75-1.11.84-1.91.84-.25,0-.47,0-.61,0-8.57,0-17.15-.01-25.72-.01-4.29,0-8.57,0-12.86.01-.38,0-1.35.01-2.13.06l-1.24.03c-7.1-30.29-25.09-58.8-48.69-78.89-4.62-3.94-57.25-38.7-51.12-45.32,15.04-4.69,28.3-15.98,39.76-26.6,7.3,1.07,14.75,1.69,22.2,1.69,10.81,0,21.6-1.32,31.92-4.55,8.43-2.63,25.32-13.62,31.27-14.17.29-.03.57-.04.85-.04,3.27,0,6.11,1.66,9.08,1.7.99.01,1.96.02,2.93.02,17.16,0,32.07-1.81,47.07-11.49,13.68,10.56,30.06,16.82,47.25,16.82,2.73,0,5.47-.16,8.23-.48,7.11-.83,27.04-6.61,26.31-15.72-.26-3.28-2.08-4.38-4.52-4.38-4.48,0-11.07,3.7-14.01,4.38-5.64,1.31-10.69,1.9-15.43,1.9-11.94,0-21.99-3.78-34.93-9.51l21.82-32.67c3.16-8.27,11.38-27.62-.63-27.62-1.27,0-2.76.22-4.51.68-7.87,29.18-32.02,60.94-64.44,63.04-.55.04-1.12.05-1.7.05-8.19,0-18.74-3.35-24.65-3.35-.68,0-1.3.04-1.84.14-4.17.75-19.72,11.43-26.42,13.97-11.25,4.26-22.38,6.13-33.62,6.13-9.52,0-19.12-1.34-28.95-3.7-16.86,20.23-42.54,35.01-69.28,35.01-5.34,0-10.72-.59-16.09-1.85-5.17-1.21-13.82-5.95-17.4-6.19-.11,0-.23-.01-.35-.01-4.53,0-12.18,5.54-17.73,6.96-6.37,1.62-12.78,2.41-19.11,2.41-22.8,0-44.62-10.17-59.83-27.97-2.38-2.78-5.33-10.23-6.46-11.16-1.45-1.2-7.03-1.98-10.2-4.07-27.16-17.91-19.79-55.68-4.15-79.1,26.32-39.41,76.48-62.05,124.21-62.05,7.98,0,15.89.63,23.62,1.93,25.54-26.14,61.63-38.8,97.86-38.8,11.73,0,23.48,1.33,34.88,3.96,4.83,1.11,20.99,8.12,30.04,8.12,5.24,0,8.1-2.34,5.03-9.52-2.83-6.63-35.86-15.14-43.76-16.76-3.7-.76-12.72.87-13.67-3.07-1.78-7.39,13.6-34.46,19.11-40.99,6.55-7.75,29.66-19.84,13.37-26.86-27.14,10.2-42.73,41.15-47.89,68.66-23.19.4-46.59,5.62-67.58,15.46-3.16,1.48-17.61,11.65-20.72,11.65-.18,0-.33-.04-.43-.11-18.09-49.09-16.6-132.62,41.68-152.89.68-20.1,9.05-41.11,28.36-49.64,6.82-3.01,21.65-2.79,22.28-9.76.49-5.52-3.86-7.13-9.08-7.13-5.16,0-11.16,1.58-14.14,2.52-14.6,4.61-29.29,17.56-35.31,31.79-2.63,6.21-3.23,16.29-5.44,19.73-1.64,2.55-12.09,7.91-15.73,11.11-45.23,39.67-46.65,111.4-26.05,164.33-2.07.07-4.15.09-6.23.09-6.27,0-12.56-.24-18.83-.24-2.02,0-4.03.02-6.05.09-3.7.12-8.51,1.98-12.71,1.98-2.13,0-4.1-.48-5.7-1.9-4.1-3.65-16.12-33.89-18.03-40.68-12.43-44.25-4.33-116.66,44.58-135.8,7.14-2.79,25.64-2.76,20.48-13.12-1.39-2.78-4.53-3.85-8.47-3.85-9.98,0-25.12,6.85-30.17,10.19-6.42-12.5-30.65-26.88-48.58-26.88-6.05,0-11.39,1.64-15.07,5.55-7.32,7.77,4.9,8.35,13.97,8.35,1.59,0,3.08-.02,4.35-.02,1.42,0,2.57.02,3.28.12,10.6,1.41,24.61,11.27,29.26,21.12-7.26,10.43-16.24,19.67-21.88,31.27-23.17,47.67-14.35,106.19,12.05,150.43-8.48,1.75-16.7,4.64-24.61,8.12-7.28,3.2-22.19,13.79-28.08,13.79-.01,0-.02,0-.03,0-12.34-.08-32.13-11.03-41.24-19.35-4.09-3.74-11.49-15.62-13.41-16.78-1.35-.82-2.91-1.26-4.39-1.26-2.7,0-5.15,1.45-5.72,4.65-2.97,16.69,34.41,42.77,51.24,42.77.28,0,.55,0,.82-.02,1.16,4.37-2.6,3.3-5.07,5.76-11.71,11.66-11.14,18.17-25.12,18.17-2.5,0-5.47-.21-9.06-.63-16.22-1.92-31.66-11.12-41.98-23.45-2.9-3.47-7.5-14.9-13.23-14.9-1.31,0-2.68.6-4.1,2.03-5.11,5.14,1.43,13.58,3.29,18.62.69,1.87,2.08,1.6-.33,3.59-2.27,1.88-13.38,5.33-16.38,5.49-.11,0-.23,0-.34,0-4.52,0-13.64-4.34-19.14-4.34-2.12,0-3.7.64-4.28,2.42-3.47,10.61,15.33,13.87,25.93,13.87,1.8,0,3.36-.09,4.54-.26,6.74-.96,17.32-7.91,20.56-7.91.02,0,.03,0,.05,0,3.21.07,5.64,4.64,8.63,6.38,12.84,7.46,26.06,12.12,40.9,12.12,1.08,0,2.16-.02,3.25-.07l-11.81,38.5c-3.19.28-6.6.42-10.17.42-35.78,0-87.72-14.09-102.83-45.8-2.63-5.53-3.72-16.15-5.92-19.24-1.78-2.48-10.59-6.84-14.42-10.74-15.01-15.3-21.52-38.96-13.83-59.22,2.24-5.9,10.49-15.48,11.05-19.17.63-4.2-2.62-10.13-2.69-14.75-.18-12.61,7.9-29.5,16.38-38.64,3.86-4.16,16.24-11.6,17.62-14.25,2.17-4.14,2.98-14.8,5.61-21.24,8.63-21.13,32.85-42.93,55.57-46.76,5.07-.85,15.82.12,18.56-1.57,1.33-.82,5.96-10.48,8.4-13.4,14.74-17.65,38.14-30.81,61.22-32.73,1.19-.1,2.5-.14,3.9-.14,5.67,0,12.79.65,18.82.65,3.45,0,6.53-.21,8.78-.88,2.07-.61,12.6-11.44,17.45-14.42,13.84-8.5,31.14-13.45,48-13.45,8.48,0,16.84,1.25,24.6,3.93,5.37,1.86,15.38,9.22,20.47,9.22.15,0,.3,0,.44-.02,2.76-.26,15.56-9.58,22.01-11.66,8.33-2.69,16.89-3.99,25.39-3.99M557.94,381.5c7.52,0,8.27-15.74,10.77-21.96,11.4-28.34,38.75-47.49,69.1-47.49,3.17,0,6.36.21,9.58.64,4.33.58,17.89,7.36,23.63,7.36,1.15,0,1.99-.27,2.37-.92,2.34-8.26-4.89-12.87-11.6-15.8-7.13-3.13-15.82-4.6-24.67-4.6-11.55,0-23.37,2.51-32.35,7.12-.21-6.65,1.91-21.98-7.55-21.98,0,0-.01,0-.02,0-13.36.03-3.46,19.87-6.74,27-1.06,2.31-20.01,17.27-24.26,22.7-5.95,7.62-22.81,41.42-11.79,46.98,1.32.66,2.48.96,3.52.96M280.92,362.81c-.37-.06-.76-.09-1.16-.09-10.87,0-34.87,20.88-28.22,30.44,1.48,1.04,2.83,1.48,4.09,1.48,5.67,0,9.4-9.05,14.51-13.27,8.11-6.71,18.25-10.04,28.38-10.04s19.79,3.18,27.81,9.49c-.53,14.3,2.79,29.06,10.33,41.31,3.23,5.25,12.38,17.82,20.07,17.82,1.43,0,2.81-.44,4.1-1.44,7.49-5.86-6.58-14.97-10.09-20.39-9.34-14.44-13.37-35.35-8.57-51.96,1.85-6.41,13.42-19.98,2.97-19.98-.73,0-1.57.07-2.52.21-7.02,1.02-12.41,13.39-12.97,19.85-10.04-3.29-19.05-7.1-29.47-7.1-1.87,0-3.78.12-5.75.39-.83-28.22,21.18-45.71,47.58-45.71,2.29,0,4.61.13,6.95.4,9.09,1.04,19.86,10.17,24.83,10.17.1,0,.21,0,.31-.01,13.3-1.1-4.03-16.13-9.75-18.84-7.95-3.77-16.28-5.49-24.47-5.49-32.6,0-63.04,27.39-58.94,62.76M714.52,430.25c.88,0,1.92-.17,3.16-.53,8.44-2.47,7.86-24.94,10.56-26.77,5-1.67,9.66-2.44,13.95-2.44,22.67,0,34.89,21.62,31.82,46.89-.87,7.15-14.47,30.96-3.64,30.96.27,0,.55-.01.84-.04,5.28-.52,7.76-2.5,11.64-2.5,2.05,0,4.49.55,7.94,2.16,12.28,5.71,11.39,19.92,15.28,23.31,1.48,1.29,3.27,1.91,5.01,1.91,3.44,0,6.66-2.42,6.88-6.93.7-14.6-17.11-32.79-32.41-32.79-.44,0-.87.01-1.31.05,11.8-36.62-4.28-76.13-41.58-76.14-4.98,0-10.32.7-16.04,2.21-5.98-10.88-8.73-21.76-17.78-30.99-6.26-6.39-23.85-16.75-36.06-16.75-3.55,0-6.65.88-8.88,2.99-9.56,9.05,16.96,10.98,22.88,14.01,16.37,8.36,28.95,33.78,26.89,51.68-.51,4.42-7.58,19.72.83,19.72M222.12,497.36c1.46,0,2.69-.86,3.36-3.04,2.14-6.96-9.67-17.66-1.89-33.66,6.51-13.38,22.05-17.01,36.82-17.01,6.11,0,12.08.62,17.23,1.43,2.6-13.69-15.45-15.11-26.39-15.11-.75,0-1.47,0-2.14.02,1.48-15.57-2.17-22.18-6.06-22.18-4.78,0-9.92,9.96-6.39,25.53-22.2,9.57-37.24,31.14-25.11,55.18,1.72,3.42,6.9,8.83,10.58,8.83M658.1,558.87c7.79,0,17.95-3.1,21.63-4.44,23.63-8.54,42.53-30.59,49.6-54.4,1.94-6.54,7.19-26.18,2.51-31.06l-5.17-1.65c-7.69.92-8.57,19.7-11.13,27.3-8.02,23.81-23.6,40.02-47.4,48.22-6.05,2.09-19.2,1.75-19.84,8.84-.49,5.46,3.99,7.18,9.79,7.18M611.78,513.28c-2.9,0-5.31-.97-7.75-.97-.46,0-.92.03-1.38.11-3.53.61-20.25,12.44-26.93,15.16-11.6,4.71-22.89,6.99-34.39,6.99-8.48,0-17.07-1.24-25.98-3.67-21.27,19.57-47.59,33.73-76.71,33.73-3.52,0-7.07-.21-10.66-.63-5.93-.71-15.08-7.17-20.76-7.17-1.94,0-3.47.75-4.34,2.75-3.65,8.42,8.76,14.81,15.67,16.37.29.38-4.76,6.91-5.62,7.78-5.42,5.47-17.74,8.48-11.26,18.32,1.39.31,2.71.45,3.99.45,12.64,0,20.05-14.22,27.43-22.94,2.13.14,4.26.2,6.37.2,21.05,0,40.68-6.62,59.07-16.97,3.96-2.23,20.4-14.71,21.72-14.97.3-.06.64-.08,1.03-.08,4.26,0,13.61,3.16,18.81,3.16.03,0,.06,0,.09,0,8.75-.07,26.73-3.93,35.3-6.79,9.58-3.19,20.46-12.2,27.53-14.41,8.19-2.56,44.78-4.38,40.1-21.36-.81-2.92-2.7-4-5.21-4-6.88,0-18.39,8.13-24.72,8.85-.48.05-.94.08-1.39.08M808.29,538.89c-6.98,0-9.18-10.12-17.62-10.12-.17,0-.35,0-.53.01-13.24.64,2.36,14.03,5.02,20.3,3.6,8.47,4.43,18.04,1.7,26.87-1.33,4.31-12,17.53-4.8,19.89.95.31,1.88.46,2.78.46,13.56,0,20.99-33.68,16.45-43.67h0c7.86,0,28.94-19.92,20.05-26.32-1.2-.87-2.31-1.23-3.33-1.23-4.43,0-7.3,6.83-9.81,8.93-4.27,3.57-7.4,4.88-9.92,4.88M502.5,631.28c9.95,0,25.16-11.19,27.78-18.32,8.3,3.73,17.49,5.32,26.71,5.32,8.14,0,16.29-1.24,23.88-3.33,7.07-1.96,35.16-13.23,25.13-23.5-.85-.87-2.02-1.24-3.42-1.24-6.76,0-18.73,8.61-24.29,10.42-6.49,2.11-14.44,3.48-22.39,3.48-10.18,0-20.36-2.24-27.5-8.03-3.57-2.9-5.32-7.91-8.53-7.92-1.76,0-3.97,1.51-7.16,5.73-1.97,6.86,10.8,15.34-5.43,22.96-4.35,2.04-14.83,1.59-13.02,8.26,1.2,4.42,4.3,6.16,8.23,6.16M414.34,650.17c13.58,0,27.04-4.98,35.35-15.37-.72-4.98-2.82-6.69-5.64-6.69-5.63,0-14.1,6.79-20.02,7.81-3.15.54-6.11.82-8.94.82-8.43,0-15.7-2.49-23.22-8.12-4.49-3.36-10.2-12.52-15.88-12.52-.54,0-1.07.08-1.61.26-8.36,2.75-.36,14.28,3.06,18.3,8.7,10.19,22.86,15.52,36.89,15.52M545.53,204.65c-10.39,0-20.67,1.61-30.54,4.8-4.9,1.58-10.03,4.57-16.73,8.61-.48.29-1.03.62-1.59.96-1.23-.65-2.52-1.37-3.5-1.92-3.59-2-6.98-3.89-10.46-5.09-9.32-3.22-19.44-4.85-30.08-4.85-19.87,0-40.03,5.66-56.77,15.93-3.55,2.18-7.26,5.45-12.53,10.21-.85.77-1.93,1.74-2.88,2.58-.55.02-1.23.04-2.06.04-2.64,0-5.8-.16-8.85-.31-3.32-.17-6.76-.34-9.97-.34-1.98,0-3.71.06-5.3.2-26.77,2.23-54.63,17.05-72.7,38.69-1.81,2.17-3.42,4.84-5.51,8.5-.26,0-.5,0-.73.01-3.6.05-7.31.11-10.64.67-13.73,2.31-28.37,9.67-41.22,20.71-12.21,10.49-21.84,23.37-27.1,36.25-1.92,4.69-2.97,9.91-3.89,14.51-.22,1.11-.51,2.54-.78,3.75-1.15.86-2.54,1.87-3.62,2.65-4.49,3.24-8.73,6.31-11.7,9.51-10.56,11.38-21.12,32.31-20.86,50.29.06,4.35,1.17,8.17,2.06,11.23.03.12.07.25.11.38-.58.88-1.21,1.83-1.72,2.59-2.92,4.35-5.94,8.85-7.72,13.52-4.92,12.95-5.68,27.28-2.21,41.43,3.29,13.41,10.12,25.68,19.74,35.5,3.23,3.3,7.33,5.96,10.95,8.31.41.26.88.57,1.36.89.22.89.45,1.85.63,2.63,1.02,4.36,2.18,9.31,4.24,13.63,8.72,18.29,26.96,33.23,52.75,43.22,19.94,7.72,43.71,12.14,65.22,12.14,4.03,0,7.94-.16,11.61-.48l.62-.05c.19,1.5.44,3,.74,4.49,3.09,15.26,11.51,27.8,24.37,36.28,2.65,1.74,5.4,2.86,7.82,3.68,1.48,2.88,3.17,5.92,5.32,8.43,18.38,21.51,44.84,33.85,72.59,33.85,7.81,0,15.64-.99,23.26-2.93,4.14-1.06,7.97-2.96,11.34-4.63.69-.34,1.54-.76,2.33-1.14.86.35,1.79.74,2.54,1.05,3.7,1.56,7.52,3.16,11.31,4.05,6.48,1.52,13.18,2.29,19.91,2.29s13.04-.72,19.51-2.11c2.49,10.9,14.19,21.68,50.72,47.67,2.6,1.85,5.54,3.94,6.35,4.58,21.26,18.14,36.99,43.6,43.14,69.87l3.11,13.28,13.63-.33,1.24-.03h.31s.31-.03.31-.03c.25-.02.81-.03,1.14-.03,4.27,0,8.54-.01,12.82-.01s8.57,0,12.85,0c4.25,0,8.5,0,12.75,0,.22,0,.46,0,.73,0,12.14,0,18.69-9.08,18.69-17.61,0-20.31-9.17-40.28-18.19-58.28,5.99.52,11.84.78,17.54.78,36.57,0,67.3-10.51,91.33-31.25,23.87-20.59,39.53-50.47,44.71-84.92,20.28-9.75,36.5-26.58,46.3-48.29,13.17-29.19,13.67-64.53,1.33-94.53-2.21-5.37-7.21-13.26-14.04-23.81-1.23-1.9-2.71-4.19-3.88-6.04.17-.75.35-1.53.5-2.17,1-4.27,2.13-9.1,2.01-13.97-.37-15.51-6.68-32.42-17.78-47.63-8.42-11.54-18.59-20.69-29.39-26.58-2.04-18.24-9.2-36.52-20.68-52.45-13.4-18.58-31.98-33.13-52.33-40.98-3.98-1.53-9.15-2.7-14.63-3.93-1.99-.45-4.84-1.09-7-1.65-.5-.84-1.03-1.74-1.49-2.52-3.37-5.75-7.19-12.26-11.84-16.69-19.1-18.19-46.9-28.2-78.29-28.2-2.65,0-5.36.07-8.03.22-3.85.21-7.57,1.22-10.85,2.11-.18.05-.38.1-.58.16-.09-.08-.17-.16-.25-.24-2.18-2.04-4.66-4.36-7.62-6.14-16.32-9.77-34.75-14.93-53.32-14.93h0Z"/><path class="cls-2" d="M545.53,229.81c11.44,0,22.84,2.62,33.4,7.62-6.19.3-12.4,2.07-14.94,2.87-17.3,5.46-33.58,20.14-40.51,36.52-1.61,3.81-2.52,8.28-3.31,12.23-.38,1.88-.93,4.58-1.36,5.9-1.27.98-4.08,2.74-5.86,3.85-3.26,2.04-6.35,3.97-8.44,5.81-45.74,40.12-48.9,109.75-32.34,162.3-1.23-.02-2.46-.04-3.67-.07-3.13-.06-6.36-.12-9.57-.12-2.29,0-4.36.03-6.31.09-2.5.08-4.91.61-7.24,1.13-1.9.42-3.87.85-5.21.85-.07,0-.13,0-.19,0-3.55-5.35-13.57-29.71-15.47-36.45-6.21-22.09-6.46-50.06-.66-72.99,4.74-18.73,15.56-43.08,40.22-52.73,1.15-.45,3.56-.95,5.68-1.39,7.23-1.5,16.22-3.37,19.74-10.63,1.31-2.7,2.28-7.08-.5-12.66-1.58-3.17-5.76-8.5-15.97-8.5-8.67,0-19.84,3.98-27.62,7.67-11.3-12.99-33.61-24.15-50.66-24.35,1.4-1.15,3.12-2.69,5.44-4.79,2.95-2.66,6.99-6.31,8.83-7.44,12.65-7.76,28.54-12.21,43.61-12.21,7.84,0,15.19,1.17,21.86,3.47,1.38.48,4.07,1.97,6.44,3.29,5.9,3.29,11.48,6.39,16.77,6.39.42,0,.83-.02,1.23-.06,3.07-.29,5.83-1.89,12.34-5.82,3.78-2.28,8.95-5.4,11.45-6.21,7.37-2.38,15.04-3.58,22.81-3.58M626.18,248.64c24.9,0,46.54,7.55,60.94,21.26,2.09,1.99,5.21,7.31,7.49,11.2,3.36,5.74,5.09,8.57,7.53,10.4,3.14,2.35,8.29,3.59,17.14,5.58,4.14.93,8.84,1.99,11.1,2.86,15.85,6.11,30.4,17.56,40.97,32.22,10.76,14.93,16.63,32.28,16.53,48.86l-.04,6.13,5.82,1.9c9.67,3.16,19.82,11.27,27.84,22.26,7.99,10.95,12.71,23.12,12.95,33.4.04,1.66-.74,4.97-1.36,7.64-1.12,4.78-2.18,9.3-1.36,13.31.48,2.38,1.57,4.18,8.12,14.31,4.14,6.4,10.4,16.08,11.9,19.72,9.75,23.72,9.38,51.61-1,74.61-6,13.3-18.09,30.85-41.59,38.98l-5.14,1.78-.48,5.42c-.06.64-.12,1.27-.18,1.9-2.3-2.91-5.85-4.63-10.08-4.63-4.58,0-9.27,1.93-13.04,3.48-1.02.42-2.42,1-2.87,1.12-4.9,1.14-9.33,1.69-13.54,1.69-7.37,0-13.97-1.65-22.32-4.91l16.18-24.22.52-.78.34-.88c.17-.45.36-.94.56-1.46,4.7-12.12,8.46-23.66,3.01-31.62-1.51-2.21-5.09-5.92-12.04-5.92-2.05,0-4.24.32-6.67.97l-4.67,1.25-1.26,4.67c-7.25,26.89-29.12,55.05-56.88,56.85-.36.02-.75.03-1.16.03-3.63,0-8.23-.88-12.68-1.73-4.36-.83-8.47-1.62-11.98-1.62-1.21,0-2.31.09-3.33.28-3.5.63-7.82,3.1-15.79,7.79-4.27,2.51-9.59,5.64-12.12,6.59-9.92,3.76-19.95,5.59-30.65,5.59-8.45,0-17.27-1.13-26.99-3.47l-5.07-1.22-3.34,4c-7.89,9.47-17.71,17.43-28.39,23.03-11.18,5.86-23.09,8.96-34.45,8.96-4.8,0-9.57-.55-14.18-1.62-1.72-.4-4.68-1.65-7.28-2.74-4.38-1.84-8.15-3.43-11.46-3.65-.3-.02-.6-.03-.91-.03-4.53,0-9.06,2.25-13.45,4.43-2.25,1.12-4.8,2.39-6.35,2.78-5.59,1.43-11.32,2.15-17.04,2.15-20.38,0-39.86-9.12-53.45-25.03-.68-.81-2.14-3.72-2.93-5.28-1.69-3.34-2.71-5.36-4.57-6.9-1.94-1.6-4.29-2.32-6.76-3.07-1.28-.39-3.42-1.04-4.15-1.53-7.24-4.77-11.8-11.59-13.55-20.26-2.79-13.79,1.83-32.3,11.76-47.18,11.81-17.68,29.36-32.52,50.77-42.92,20.75-10.08,43.73-15.41,66.46-15.41,7.58,0,15.05.61,22.23,1.81l4.32.72,3.06-3.13c11.55-11.82,25.65-20.98,41.93-27.23,15.62-6,32.41-9.04,49.93-9.04,11.12,0,22.22,1.26,33,3.74.99.23,3.53,1.12,5.99,1.98,7.66,2.68,18.16,6.36,25.94,6.36,7.25,0,10.88-3.18,12.64-5.85,2.69-4.07,2.72-9.24.1-15.36-1.99-4.66-7.02-8.98-25.07-14.92-9.87-3.25-20.4-5.86-24.71-6.75-1.92-.39-3.93-.41-6.05-.42-.02,0-.03,0-.05,0,2.97-8.44,11.73-24.65,16.26-30.01,1.17-1.39,3.72-3.49,6.19-5.52,7.52-6.19,16.04-13.22,14.73-22.46-.51-3.6-2.77-8.6-10.64-11.99l-3.11-1.34-3.17,1.19c-28.68,10.78-45.19,41.24-51.77,68.37-22.39,1.23-44.49,6.72-64.32,16.01-1.48.69-3.47,1.94-7.16,4.28-1.37.87-3.39,2.15-5.39,3.37-8.51-29-10.79-69.86,3.39-99.86,7.92-16.76,20.04-28.07,36.01-33.63l5.43-1.89.19-5.75c.26-7.6,2.7-33.11,23.37-42.25,1.41-.62,4.25-1.21,6.76-1.74,7.77-1.61,19.5-4.05,20.48-14.95.09-1.05.09-2.03.02-2.94.91.4,1.85.72,2.83.92.92.19,1.9.28,2.93.28,3.23,0,6.68-.94,10.02-1.84,1.97-.53,4.42-1.2,5.6-1.26,2.23-.12,4.48-.18,6.68-.18M582.8,306.91c-1.69,1.63-5.18,4.67-7.86,7-7.61,6.63-12.79,11.22-15.34,14.48-5.2,6.65-20.09,34.1-16.7,49.26,1.05,4.7,3.8,8.39,7.74,10.37,2.45,1.23,4.9,1.86,7.29,1.86,3.35,0,9.57-1.28,13.54-9.88,1.72-3.73,2.7-8.03,3.57-11.84.49-2.17,1.01-4.4,1.45-5.5,5-12.43,13.45-23.02,24.43-30.6,11.01-7.61,23.77-11.63,36.89-11.63,2.8,0,5.63.19,8.43.56,1.1.21,4.66,1.58,7.01,2.49,7.52,2.9,13.19,4.95,17.77,4.95,5.97,0,8.7-3.53,9.6-5.05l.55-.93.3-1.04c2.14-7.56,1.05-18.17-16.3-25.77-7.92-3.47-17.61-5.3-28.04-5.3-8.25,0-16.56,1.17-24.07,3.33-.41-5.05-1.68-10.2-5.3-13.89-2.75-2.81-6.39-4.3-10.56-4.3-6.13.01-9.74,2.64-11.68,4.85-5.06,5.74-4.05,13.93-3.24,20.51.23,1.89.56,4.57.53,6.08M705.36,409.53c-.09.54-.54,2.08-.88,3.21-1.97,6.72-4.43,15.08.14,21.18,2.28,3.04,5.79,4.72,9.9,4.72,1.72,0,3.52-.28,5.52-.87,10.5-3.07,12.69-16.06,14.3-25.54.13-.75.27-1.61.42-2.42,2.6-.61,5.09-.91,7.44-.91,6.6,0,12.05,2.38,16.21,7.07,6.05,6.83,8.77,18.2,7.29,30.41-.17,1.19-1.59,4.89-2.62,7.6-3.86,10.1-7.86,20.54-2.96,27.66,2.27,3.3,5.92,5.12,10.27,5.12.54,0,1.1-.03,1.67-.08,3.47-.34,6.07-1.17,7.96-1.77,1.43-.45,2.21-.69,2.85-.69.95,0,2.47.47,4.4,1.37,4.42,2.06,5.96,6,7.8,11.77,1.19,3.72,2.41,7.56,5.51,10.26,2.94,2.56,6.68,3.97,10.52,3.97,8.29,0,14.85-6.41,15.26-14.91.43-9.04-3.94-19.08-12.01-27.54-5.79-6.07-12.71-10.45-19.61-12.59,4.2-20.83.51-41.9-10.3-56.74-9.77-13.42-24.6-20.81-41.76-20.81-3.72,0-7.56.34-11.49,1.02-.64-1.35-1.26-2.72-1.9-4.12-3.54-7.76-7.21-15.79-14.44-23.17-7.72-7.87-27.13-19.27-42.05-19.27-7.49,0-12.1,2.87-14.65,5.29-5.34,5.05-4.98,10.07-4.3,12.61,2.28,8.46,12.62,10.89,22.62,13.24,2.24.52,5.61,1.32,6.5,1.73,12.78,6.53,24.07,28.32,22.38,43.21M658.1,567.26c10.53,0,23.09-4.43,24.48-4.93,25.18-9.1,46.69-32.62,54.79-59.9,9.02-30.39,2.85-36.83.52-39.25l-1.47-1.54-2.03-.65-5.17-1.65-1.74-.55-1.81.22c-11.64,1.4-14.43,15.54-16.47,25.86-.54,2.72-1.09,5.53-1.62,7.09-7.29,21.64-21.08,35.69-42.18,42.97-1.05.36-3.03.71-4.95,1.05-7.28,1.29-19.47,3.45-20.51,14.97-.49,5.44,1.63,9.02,3.49,11.05,3.19,3.49,8.13,5.27,14.66,5.27M611.78,504.89c-.72,0-1.61-.17-2.64-.37-1.4-.27-3.15-.6-5.12-.6-.96,0-1.91.08-2.82.24-3.13.54-6.59,2.56-15.67,8.17-4.62,2.86-10.38,6.42-12.98,7.47-10.57,4.29-20.79,6.38-31.23,6.38-7.66,0-15.44-1.1-23.77-3.38l-4.47-1.22-3.41,3.14c-15.62,14.38-40.63,31.52-71.03,31.52-3.21,0-6.47-.19-9.67-.58-1.47-.17-4.81-1.7-7.25-2.82-4.74-2.17-9.65-4.41-14.5-4.41-5.42,0-9.92,2.92-12.03,7.8-1.92,4.44-1.77,9.27.43,13.6,2.06,4.05,5.64,7.19,9.45,9.51-.65.46-1.38.94-2.09,1.41-3.2,2.12-6.83,4.53-9.2,8.27-1.96,3.1-4.45,9.5.9,17.62l1.87,2.83,3.31.74c1.95.43,3.9.66,5.82.66,14.24,0,23.09-11.79,29.55-20.41.61-.81,1.2-1.6,1.78-2.36.82.02,1.65.03,2.46.03,20.93,0,41.6-5.9,63.18-18.04,2.18-1.23,6.08-4.01,12.25-8.45,2.5-1.8,5.7-4.1,7.6-5.39,1.51.24,3.81.76,5.47,1.13,4.16.94,8.46,1.9,12.12,1.9h.16c10.13-.08,29.21-4.33,37.89-7.22,5.98-1.99,11.97-5.65,17.27-8.88,3.82-2.33,7.78-4.75,10.12-5.48,1.13-.35,4.01-.85,6.8-1.33,12.71-2.2,30.12-5.21,36.89-15.89,2.71-4.28,3.4-9.25,1.99-14.37-1.75-6.36-6.73-10.16-13.3-10.16-5.63,0-11.59,2.81-17.35,5.52-2.71,1.28-6.8,3.21-8.31,3.38-.14.02-.29.02-.45.02M812.71,527.68c-2.25,1.87-3.59,2.51-4.16,2.73-.58-.45-1.51-1.4-2.16-2.07-3.09-3.17-7.76-7.95-15.71-7.95-.31,0-.62,0-.93.02-7.6.37-10.84,3.98-12.21,6.94-3.36,7.24,1.91,14.16,6.57,20.27,1.18,1.55,2.97,3.9,3.35,4.75,2.95,6.93,3.45,14.39,1.43,21.02-.25.61-1.17,2.21-1.84,3.38-3.4,5.95-7.63,13.35-5.03,20.14,1.27,3.3,3.91,5.75,7.43,6.91,1.78.58,3.59.88,5.4.88,4.61,0,11.34-1.91,17.19-11,6.11-9.49,9.55-24.54,8.84-35.6,8.78-4.8,17.66-14.6,20.13-22.23,2.12-6.58.35-12.69-4.75-16.37-2.59-1.87-5.36-2.81-8.23-2.81-7.29,0-11.51,5.81-14.03,9.29-.4.56-1,1.38-1.28,1.69M507.21,607.1c-.37.37-1.32,1.14-3.46,2.15-.48.2-1.98.54-2.97.75-4.32.95-10.24,2.26-13.38,7.44-1.23,2.02-2.43,5.38-1.22,9.86,2.09,7.74,8.2,12.36,16.33,12.36,10.49,0,23.78-8.11,31.03-16.49,7.21,2.32,15.07,3.49,23.46,3.49s17.38-1.22,26.11-3.64c.29-.08,28.9-8.37,32.92-23.24,1.38-5.09-.05-10.13-4.02-14.2-1.68-1.72-4.67-3.77-9.42-3.77-6.43,0-13.44,3.81-20.22,7.49-2.52,1.37-5.37,2.92-6.67,3.34-6.08,1.98-13.11,3.07-19.79,3.07-9.43,0-17.32-2.19-22.22-6.16-.63-.51-1.42-1.55-2.19-2.55-2.07-2.71-5.53-7.23-11.62-7.23-6.2,0-10.66,4.84-13.85,9.05l-.95,1.25-.43,1.5c-1.43,4.99.29,9.38,1.55,12.59.35.9.86,2.2,1.01,2.92M414.33,658.56c17.21,0,32.48-6.75,41.9-18.52l2.27-2.84-.52-3.6c-1.85-12.88-11.14-13.88-13.94-13.88-5.1,0-9.97,2.51-14.69,4.94-2.37,1.22-5.32,2.74-6.74,2.99-2.75.47-5.22.7-7.53.7-6.72,0-12.16-1.93-18.19-6.44-.87-.65-2.36-2.26-3.67-3.67-4.35-4.69-9.77-10.53-17.24-10.53-1.44,0-2.86.23-4.23.68-4.56,1.5-7.74,4.69-8.94,9-2.49,8.88,4.94,18.84,8.25,22.72,9.87,11.56,26.05,18.46,43.27,18.46M359.57,260.43c2.58,0,5.56.15,8.71.31,3.16.16,6.43.32,9.52.34-1.73,1.09-3.31,2.38-4.71,3.87-5.8,6.15-4.78,11.45-3.65,14.06,3.36,7.78,13.56,8.43,23.72,8.43.85,0,1.68,0,2.46,0,.67,0,1.3,0,1.88,0,1.58,0,2.07.03,2.17.04,6.51.87,15.39,6.56,20.23,12.48-1.37,1.81-2.78,3.62-4.25,5.49-5.37,6.87-10.93,13.97-15.04,22.44-21.31,43.86-18.48,99.93,6.98,148.72-4.95,1.55-10.05,3.47-15.38,5.81-3.03,1.33-6.79,3.52-10.77,5.84-4.07,2.37-11.58,6.75-14.12,7.23-9.46-.2-27.03-9.49-35.42-17.15-1.55-1.41-4.76-5.84-6.88-8.77-3.9-5.38-5.58-7.62-7.82-8.99-2.67-1.63-5.7-2.48-8.75-2.48-7.13,0-12.75,4.65-13.98,11.56-1.31,7.35,1.61,15.35,8.68,23.79,8.15,9.73,22.52,20.24,35.8,25.48-1.37,1.59-2.53,3.05-3.57,4.34-1.97,2.46-3.39,4.24-4.69,5.06-.75.47-2.19,1.09-6.09,1.09-2.16,0-4.8-.19-8.07-.58-13.47-1.6-27.13-9.26-36.54-20.5-.38-.46-1.33-2.05-2.02-3.21-3.69-6.2-8.73-14.69-17.64-14.69-2.54,0-6.35.78-10.05,4.5-7.63,7.68-3.41,17.65-.66,23.22-2.77.94-5.91,1.83-7.24,2.01-1.14-.09-4.13-1.02-6.14-1.63-4.31-1.33-8.78-2.7-12.92-2.7-5.99,0-10.57,3.06-12.26,8.2-1.61,4.91-.88,9.84,2.04,13.87,7.4,10.21,26.26,11,31.86,11,2.18,0,4.11-.12,5.72-.34,4.97-.71,10.37-3.3,15.13-5.58,1.03-.5,2.28-1.09,3.33-1.57.09.09.17.18.25.26,1.32,1.36,2.97,3.05,5.14,4.31,12.82,7.45,24.8,11.62,37.12,12.86l-6.87,22.4c-1.26.04-2.55.06-3.86.06-18.25,0-39.24-3.9-56.14-10.44-13.73-5.31-31.66-14.93-39.12-30.57-.89-1.88-1.73-5.42-2.46-8.55-1.18-5.04-2.12-9.03-4.22-11.96-1.8-2.51-4.78-4.45-8.56-6.91-2.41-1.56-5.4-3.51-6.7-4.83-13.41-13.67-18.22-33.92-11.98-50.37.75-1.97,3.15-5.55,5.08-8.43,3.74-5.56,5.88-8.89,6.42-12.47.62-4.11-.52-8.06-1.53-11.53-.47-1.62-1.05-3.63-1.07-4.6-.15-10.35,7.19-25.32,14.14-32.81,1.28-1.38,5.16-4.18,7.99-6.23,6.26-4.52,9.34-6.83,10.91-9.83,1.64-3.13,2.47-7.24,3.42-12,.71-3.51,1.5-7.48,2.52-9.96,7.93-19.42,30.46-38.5,49.2-41.66,1.44-.24,4.3-.28,6.83-.32,6.91-.1,11.32-.27,14.73-2.38,2.52-1.55,3.87-3.93,6.81-9.13,1.1-1.94,2.93-5.18,3.64-6.04,13.7-16.41,35.48-28.08,55.47-29.75.87-.07,1.95-.11,3.21-.11M272.17,355.8c-10.8,3.83-22.69,14.48-27.46,23.61-4.84,9.26-2.11,15.6-.05,18.55l.85,1.22,1.16.81c-1.16-.37-2.37-.57-3.61-.57-3.96,0-7.69,1.94-10.52,5.48-4.35,5.44-6.16,13.99-5.16,23.65-12.48,6.84-21.8,16.99-25.99,28.54-4.13,11.38-3.21,23.56,2.67,35.22,2.21,4.39,9.54,13.45,18.07,13.45,5.32,0,9.68-3.43,11.38-8.96,1.62-5.25-.19-10.24-1.78-14.64-2.12-5.86-3.94-10.92-.58-17.81,3.97-8.16,13.82-12.3,29.28-12.3,4.96,0,10.32.45,15.93,1.33l8.03,1.26,1.52-7.98c1.42-7.48-1.19-12.57-3.63-15.52-5.62-6.79-15.6-8.81-24.44-9.36-.2-8.19-2.06-14.27-5.56-18.11-.52-.57-1.08-1.09-1.66-1.55,1.64.62,3.33.93,5.03.93,7.73,0,12.49-6.17,15.96-10.68,1.35-1.76,2.76-3.58,3.89-4.51,6.33-5.23,14.51-8.11,23.04-8.11,6.93,0,13.67,1.91,19.37,5.42.24,14.95,4.3,29.48,11.61,41.38.99,1.6,4.58,7.22,9.46,12.3,6.16,6.4,11.96,9.52,17.75,9.52,3.37,0,6.57-1.11,9.27-3.22,4.13-3.23,5.2-7.09,5.36-9.75.46-7.43-5.39-13.31-10.08-18.03-1.27-1.28-3.01-3.03-3.5-3.77-8.38-12.94-11.48-31.48-7.55-45.07.27-.94,1.57-3.31,2.51-5.04,3.46-6.34,7.39-13.52,3.54-20.02-1.25-2.1-4.35-5.63-11.13-5.63-1.16,0-2.38.1-3.73.29-8.48,1.24-14.36,9.52-17.51,17.35-6.43-2.15-13.1-4.12-20.48-4.59,1.22-6.6,4.16-12.41,8.7-17.09,7.13-7.34,18.02-11.55,29.87-11.55,1.98,0,4,.12,6,.34,3.33.38,8.2,3.03,12.1,5.16,4.98,2.72,9.28,5.06,13.68,5.06.33,0,.67-.01,1-.04,10.05-.83,12.05-7.6,12.42-9.65.93-5.1-1.6-10.5-7.72-16.51-3.69-3.63-8.33-7.09-11.55-8.61-8.83-4.18-18.27-6.3-28.06-6.3-19.39,0-38.7,8.68-51.64,23.21-10.33,11.6-15.89,25.9-16.05,40.93M715.57,639.9c14.61,9.95,30.99,15.18,47.71,15.18,3.06,0,6.15-.18,9.2-.54,4.57-.53,12.11-2.43,18.66-5.48,3.48-1.62,6.2-3.35,8.31-5.11-5.93,22.17-17.34,41.17-33.2,54.85-19.33,16.68-44.53,25.14-74.89,25.14-13.8,0-28.78-1.75-44.53-5.21l-15.41-3.38,5.81,14.66c3.13,7.9,7.17,15.9,11.45,24.36,7.57,14.97,15.36,30.38,17.55,44.67-2.13,0-4.26,0-6.39,0-4.29,0-8.58,0-12.87,0-3.26,0-6.51,0-9.77,0-8.31-29.06-26.16-56.74-49.71-76.79-1.13-.97-3.27-2.49-7.99-5.85-6.53-4.65-16.41-11.67-24.99-18.46-5.82-4.6-9.54-7.92-11.91-10.24,11.26-5.37,21.42-13.58,30.86-22.14,6.7.83,13.21,1.24,19.42,1.24,12.37,0,23.95-1.66,34.42-4.93,4.55-1.42,10.27-4.42,16.31-7.58,4.43-2.32,11.11-5.82,13.28-6.25,0,0,.01,0,.02,0,.53,0,1.54.29,2.53.56,1.75.49,3.92,1.1,6.47,1.13,1.02.01,2.02.02,3.02.02,17.12,0,31.83-1.76,46.61-9.85M545.53,221.43c-8.5,0-17.05,1.3-25.39,3.99-6.45,2.08-19.25,11.4-22.01,11.66-.14.01-.29.02-.44.02-5.09,0-15.1-7.37-20.47-9.22-7.76-2.68-16.13-3.93-24.6-3.93-16.86,0-34.15,4.95-48,13.45-4.85,2.98-15.38,13.81-17.45,14.42-2.25.67-5.34.88-8.78.88-6.02,0-13.15-.65-18.82-.65-1.4,0-2.72.04-3.9.14-23.08,1.92-46.48,15.08-61.22,32.73-2.44,2.92-7.07,12.58-8.4,13.4-2.74,1.69-13.49.71-18.56,1.57-22.73,3.83-46.94,25.62-55.57,46.76-2.63,6.44-3.44,17.09-5.61,21.23-1.39,2.65-13.76,10.09-17.62,14.25-8.48,9.13-16.56,26.02-16.38,38.64.07,4.62,3.32,10.56,2.69,14.75-.56,3.69-8.81,13.27-11.05,19.17-7.69,20.27-1.18,43.92,13.83,59.22,3.83,3.9,12.64,8.26,14.42,10.74,2.21,3.09,3.29,13.71,5.92,19.24,15.11,31.7,67.05,45.8,102.83,45.8,3.57,0,6.97-.14,10.17-.42l11.81-38.5c-1.09.05-2.18.07-3.25.07-14.84,0-28.06-4.66-40.9-12.12-3-1.74-5.42-6.31-8.63-6.38-.02,0-.03,0-.05,0-3.25,0-13.82,6.95-20.56,7.91-1.18.17-2.74.26-4.54.26-10.61,0-29.41-3.26-25.93-13.87.58-1.78,2.17-2.42,4.28-2.42,5.51,0,14.62,4.34,19.14,4.34.12,0,.23,0,.34,0,3.01-.16,14.12-3.62,16.38-5.49,2.41-1.99,1.02-1.72.33-3.59-1.86-5.04-8.4-13.48-3.29-18.62,1.42-1.43,2.79-2.03,4.1-2.03,5.73,0,10.32,11.43,13.23,14.9,10.32,12.33,25.76,21.52,41.98,23.45,3.59.43,6.56.63,9.06.63,13.98,0,13.41-6.51,25.12-18.17,2.47-2.46,6.23-1.39,5.07-5.76-.27.01-.54.02-.82.02-16.84,0-54.22-26.08-51.24-42.77.57-3.2,3.03-4.65,5.72-4.65,1.48,0,3.04.44,4.39,1.26,1.92,1.17,9.31,13.04,13.41,16.78,9.1,8.32,28.89,19.27,41.24,19.35.01,0,.02,0,.03,0,5.89,0,20.8-10.59,28.08-13.79,7.91-3.48,16.13-6.36,24.61-8.12-26.4-44.24-35.21-102.76-12.05-150.43,5.64-11.6,14.62-20.84,21.88-31.27-4.66-9.84-18.67-19.7-29.26-21.11-.71-.09-1.85-.12-3.28-.12-1.27,0-2.76.02-4.35.02-9.07,0-21.29-.58-13.97-8.35,3.68-3.91,9.02-5.55,15.07-5.55,17.92,0,42.16,14.38,48.58,26.88,5.06-3.34,20.2-10.19,30.17-10.19,3.94,0,7.08,1.07,8.47,3.85,5.17,10.36-13.34,10.33-20.48,13.12-48.91,19.14-57.01,91.55-44.58,135.8,1.91,6.78,13.93,37.03,18.03,40.68,1.6,1.42,3.57,1.9,5.7,1.9,4.21,0,9.01-1.87,12.71-1.98,2.01-.06,4.03-.09,6.05-.09,6.27,0,12.56.24,18.83.24,2.08,0,4.16-.03,6.23-.09-20.6-52.93-19.18-124.67,26.05-164.33,3.64-3.19,14.09-8.56,15.73-11.11,2.21-3.43,2.81-13.51,5.44-19.73,6.02-14.23,20.71-27.18,35.31-31.79,2.98-.94,8.98-2.52,14.14-2.52,5.22,0,9.57,1.61,9.08,7.13-.62,6.97-15.46,6.75-22.28,9.76-19.31,8.53-27.68,29.54-28.36,49.64-58.28,20.27-59.77,103.81-41.68,152.89.1.07.24.11.43.11,3.11,0,17.57-10.17,20.72-11.65,20.99-9.84,44.39-15.07,67.58-15.46,5.16-27.51,20.76-58.46,47.89-68.66,16.29,7.02-6.82,19.11-13.37,26.86-5.51,6.52-20.88,33.6-19.11,40.99.95,3.94,9.97,2.31,13.67,3.07,7.89,1.62,40.92,10.13,43.76,16.76,3.07,7.18.21,9.52-5.03,9.52-9.06,0-25.21-7.01-30.04-8.12-11.4-2.63-23.15-3.96-34.88-3.96-36.22,0-72.32,12.67-97.86,38.8-7.72-1.29-15.63-1.93-23.62-1.93-47.72,0-97.88,22.65-124.21,62.05-15.64,23.42-23.01,61.19,4.15,79.1,3.17,2.09,8.75,2.87,10.2,4.07,1.13.93,4.08,8.37,6.46,11.16,15.21,17.8,37.03,27.97,59.83,27.97,6.34,0,12.75-.79,19.11-2.41,5.55-1.42,13.19-6.96,17.73-6.96.12,0,.23,0,.35.01,3.59.24,12.24,4.98,17.4,6.19,5.36,1.26,10.75,1.85,16.09,1.85,26.73,0,52.42-14.79,69.28-35.01,9.82,2.36,19.42,3.7,28.95,3.7,11.24,0,22.37-1.87,33.62-6.13,6.7-2.54,22.25-13.22,26.42-13.97.55-.1,1.16-.14,1.84-.14,5.91,0,16.46,3.35,24.65,3.35.58,0,1.15-.02,1.7-.05,32.41-2.1,56.57-33.85,64.44-63.04,1.75-.47,3.24-.68,4.51-.68,12.01,0,3.79,19.35.63,27.62l-21.83,32.67c12.94,5.74,22.99,9.51,34.93,9.51,4.74,0,9.79-.6,15.43-1.9,2.94-.68,9.53-4.39,14.01-4.38,2.44,0,4.26,1.1,4.52,4.38.73,9.12-19.19,14.89-26.31,15.72-2.76.32-5.5.48-8.23.48-17.19,0-33.57-6.26-47.25-16.82-15,9.68-29.91,11.49-47.07,11.49-.97,0-1.95,0-2.93-.02-2.97-.03-5.82-1.7-9.08-1.7-.28,0-.56.01-.85.04-5.94.55-22.84,11.54-31.27,14.17-10.32,3.22-21.11,4.55-31.92,4.55-7.44,0-14.89-.63-22.2-1.69-11.46,10.62-24.72,21.91-39.76,26.6-6.13,6.62,46.49,41.39,51.12,45.32,23.59,20.09,41.59,48.6,48.69,78.89l1.24-.03c.78-.05,1.75-.06,2.13-.06,4.29,0,8.57-.01,12.86-.01,8.57,0,17.15.01,25.72.01.14,0,.36,0,.61,0,.8,0,1.91-.09,1.91-.84,0-26.51-20.5-55.23-30.2-79.68,15.18,3.33,30.85,5.4,46.32,5.4,28.99,0,57.31-7.27,80.37-27.17,24.59-21.22,37.37-51.97,40.18-83.96,50.01-17.28,66.63-78.45,47.61-124.7-3.14-7.64-19.08-30.19-19.55-32.5-.85-4.2,3.03-13.72,2.89-19.48-.59-24.92-22.72-55.65-46.58-63.43.24-38.51-27.59-75.35-62.87-88.96-6.47-2.5-22.93-4.86-26.22-7.33-2.7-2.02-8.96-15.91-14.27-20.96-17.79-16.94-42.64-23.57-66.73-23.57-2.39,0-4.77.07-7.13.19-4.32.23-11.1,3.09-15.17,3.09-.45,0-.87-.03-1.24-.11-3.83-.79-8.82-7.3-12.4-9.45-13.66-8.18-29.1-12.55-44.7-12.55h0ZM557.94,381.5c-1.04,0-2.2-.3-3.52-.96-11.02-5.55,5.84-39.36,11.79-46.98,4.25-5.44,23.2-20.4,24.26-22.7,3.28-7.13-6.63-26.97,6.74-27h.02c9.47,0,7.34,15.33,7.55,21.98,8.98-4.61,20.8-7.12,32.35-7.12,8.85,0,17.54,1.47,24.67,4.6,6.71,2.94,13.93,7.55,11.6,15.8-.38.65-1.22.92-2.37.92-5.74,0-19.31-6.78-23.63-7.36-3.22-.43-6.41-.64-9.58-.64-30.36,0-57.7,19.14-69.1,47.49-2.5,6.22-3.25,21.96-10.77,21.96h0ZM280.92,362.81c-4.1-35.38,26.33-62.76,58.94-62.76,8.19,0,16.52,1.73,24.47,5.49,5.72,2.71,23.04,17.74,9.75,18.84-.1,0-.2.01-.31.01-4.98,0-15.74-9.13-24.83-10.17-2.34-.27-4.66-.4-6.95-.4-26.4,0-48.41,17.48-47.58,45.71,1.97-.27,3.88-.39,5.75-.39,10.42,0,19.43,3.81,29.47,7.1.57-6.46,5.96-18.82,12.97-19.85.96-.14,1.79-.21,2.52-.21,10.45,0-1.11,13.56-2.97,19.98-4.8,16.61-.77,37.52,8.57,51.96,3.51,5.42,17.59,14.53,10.09,20.39-1.28,1-2.66,1.44-4.1,1.44-7.68,0-16.84-12.57-20.07-17.82-7.53-12.24-10.86-27.01-10.33-41.31-8.01-6.31-17.91-9.49-27.81-9.49s-20.27,3.33-28.38,10.04c-5.11,4.22-8.84,13.27-14.51,13.27-1.26,0-2.61-.44-4.09-1.48-6.65-9.56,17.35-30.44,28.22-30.44.41,0,.79.03,1.16.09h0ZM714.52,430.25c-8.41,0-1.34-15.29-.83-19.72,2.06-17.91-10.52-43.32-26.89-51.68-5.92-3.03-32.44-4.96-22.88-14.01,2.23-2.11,5.33-2.99,8.88-2.99,12.21,0,29.8,10.36,36.06,16.75,9.05,9.23,11.8,20.11,17.78,30.99,5.71-1.51,11.06-2.21,16.04-2.21,37.3,0,53.38,39.52,41.58,76.14.43-.03.87-.05,1.31-.05,15.3,0,33.11,18.2,32.41,32.79-.22,4.5-3.45,6.93-6.88,6.93-1.74,0-3.53-.62-5.01-1.91-3.89-3.38-3-17.59-15.28-23.31-3.45-1.6-5.89-2.16-7.94-2.16-3.88,0-6.36,1.98-11.64,2.5-.3.03-.58.04-.84.04-10.83,0,2.77-23.81,3.64-30.96,3.07-25.27-9.15-46.89-31.82-46.89-4.29,0-8.95.77-13.95,2.44-2.7,1.83-2.12,24.3-10.56,26.77-1.24.36-2.28.53-3.16.53h0ZM222.12,497.36c-3.67,0-8.85-5.42-10.58-8.83-12.12-24.04,2.91-45.62,25.11-55.18-3.53-15.58,1.62-25.53,6.39-25.53,3.89,0,7.54,6.61,6.06,22.18.68,0,1.39-.02,2.14-.02,10.94,0,29,1.41,26.39,15.11-5.15-.81-11.12-1.43-17.23-1.43-14.76,0-30.3,3.63-36.82,17.01-7.79,15.99,4.03,26.7,1.89,33.66-.67,2.19-1.9,3.04-3.36,3.04h0ZM658.1,558.87c-5.8,0-10.29-1.72-9.79-7.18.64-7.09,13.79-6.76,19.84-8.84,23.79-8.21,39.38-24.42,47.4-48.22,2.56-7.6,3.44-26.38,11.13-27.3l5.17,1.65c4.68,4.88-.57,24.52-2.51,31.06-7.07,23.81-25.97,45.86-49.6,54.4-3.69,1.33-13.85,4.44-21.63,4.44h0ZM611.78,513.28c.45,0,.92-.02,1.39-.08,6.33-.72,17.83-8.85,24.72-8.85,2.51,0,4.41,1.08,5.21,4,4.68,16.98-31.92,18.8-40.1,21.36-7.07,2.21-17.95,11.22-27.53,14.41-8.58,2.86-26.55,6.72-35.3,6.79-.03,0-.06,0-.09,0-5.2,0-14.55-3.16-18.81-3.16-.39,0-.73.03-1.03.08-1.31.25-17.75,12.74-21.72,14.97-18.39,10.35-38.02,16.97-59.07,16.97-2.11,0-4.23-.07-6.37-.2-7.38,8.72-14.79,22.94-27.43,22.94-1.27,0-2.6-.14-3.99-.45-6.48-9.84,5.84-12.85,11.26-18.32.86-.87,5.91-7.39,5.62-7.78-6.91-1.57-19.32-7.95-15.67-16.37.86-1.99,2.4-2.75,4.34-2.75,5.68,0,14.83,6.47,20.76,7.17,3.59.43,7.15.63,10.66.63,29.12,0,55.45-14.16,76.71-33.73,8.91,2.43,17.5,3.67,25.98,3.67,11.5,0,22.79-2.28,34.39-6.99,6.69-2.71,23.4-14.54,26.93-15.16.47-.08.93-.11,1.38-.11,2.45,0,4.85.97,7.75.97h0ZM808.29,538.89c2.51,0,5.65-1.31,9.91-4.88,2.51-2.1,5.38-8.93,9.81-8.93,1.02,0,2.13.36,3.33,1.23,8.89,6.4-12.19,26.32-20.05,26.32h0c4.54,9.99-2.89,43.67-16.45,43.67-.9,0-1.83-.15-2.78-.46-7.2-2.37,3.47-15.58,4.8-19.89,2.73-8.83,1.91-18.4-1.7-26.87-2.67-6.27-18.27-19.65-5.02-20.3.18,0,.35-.01.53-.01,8.44,0,10.64,10.12,17.62,10.12h0ZM502.5,631.28c-3.93,0-7.04-1.74-8.23-6.16-1.8-6.67,8.68-6.22,13.02-8.26,16.23-7.61,3.46-16.1,5.43-22.96,3.19-4.21,5.4-5.73,7.16-5.73,3.21,0,4.96,5.02,8.53,7.92,7.14,5.79,17.32,8.03,27.5,8.03,7.95,0,15.9-1.37,22.39-3.48,5.56-1.81,17.53-10.42,24.29-10.42,1.4,0,2.57.37,3.42,1.24,10.02,10.27-18.06,21.54-25.13,23.5-7.59,2.1-15.74,3.33-23.88,3.33-9.22,0-18.41-1.59-26.71-5.32-2.62,7.13-17.83,18.32-27.78,18.32h0ZM414.33,650.17c-14.03,0-28.19-5.33-36.89-15.52-3.43-4.01-11.42-15.55-3.06-18.3.54-.18,1.07-.26,1.61-.26,5.68,0,11.38,9.16,15.88,12.52,7.52,5.63,14.79,8.12,23.22,8.12,2.83,0,5.8-.28,8.94-.82,5.91-1.01,14.39-7.81,20.02-7.81,2.82,0,4.92,1.7,5.64,6.69-8.31,10.39-21.77,15.37-35.35,15.37h0Z"/><path class="cls-2" d="M563.08,433.85c-30.98-20.88-159.63-103.92-301.32-96.51-88.68,4.64-161.11,48.97-175.7,61.74-3.61,3.16-12.67,14.85-14.27,15.86-1.66,1.05-10.57-1.27-15.92-.16-27.6,5.73-26.68,53.36,10.4,49.7,14.26-1.41,23.27-15.29,21.04-28.76-.56-3.37-4.52-9.28-4.15-11.19.14-.71,7.87-9.95,9.2-11.32,43.09-44.43,131.51-62.06,191.34-61.46,93.28.93,187.1,31.87,262.03,87.04l17.36-4.92Z"/><path class="cls-2" d="M788.91,313.72l11.87-3.21c50.38-11.46,128.05-6.6,121.79,62.71-5.37,59.42-94.74,121.56-142.21,150.14-4.92,2.96-23.21,11.14-25.42,13.34-1.6,1.59-3.62,8.17-5.49,11.08-15.64,24.33-32.1,47.57-50.85,69.61-1.31,1.54-.71,3.93,1.19,4.62,51.8,18.78,115.65,22.98,168.89,7.99,27.3-7.69,57.11-21.91,74.67-44.45.7-.9.76-2.11.28-3.14-11.05-23.33,14.08-47.14,36.57-33.26,20.43,12.6,12.94,44.81-11.03,46.92-4.84.43-10.18-2.41-13.75-1.59-.94.22-9.94,11.58-13.06,14.21-30.76,25.95-74.33,40.1-114.14,44.14-48.64,4.93-97.34-5.5-143.92-18.22-.98-.27-2.04,0-2.77.7-23.19,22.16-46.03,45.58-72.78,63.17-.08.05-.15.1-.22.16l-13.26,10.87c-.08.07-.17.13-.26.19-56.72,37.18-129.68,72.12-199.63,67.57-6.04-.39-24.82-5.01-28.38-4.33-2.51.48-6.61,7.04-9.9,8.86-21.04,11.62-44.77-8.23-36.21-31.25,9.14-24.56,44.86-19.14,48.41,5.49.18,1.22,1.12,2.2,2.34,2.43,74.94,14.32,150.54-18.08,211.52-59.11.05-.03.1-.07.15-.1l12.85-9.72c.26-.19.53-.36.83-.47,4.22-1.5,29.54-22.27,33.87-25.97,8.57-7.33,29.15-24.82,34.88-33.08l.03-.04c1.2-1.71.34-4.08-1.67-4.67-17.04-4.94-71.31-30.15-90.94-43-3.21-2.1-3.49-6.7-.55-9.16l1.87-1.56c2.65-2.21,6.4-2.51,9.37-.77,29.97,17.59,61.05,33.91,94.33,44.42,1.12.35,2.35,0,3.11-.9,11.66-13.73,23.66-27.4,34.19-42.01,1.02-1.42,6.46-9.11,10.18-14.99,1.49-2.37-.86-5.28-3.48-4.3l-93.37,34.66c-.54.2-1.15.27-1.7.11-3.7-1.1-6.62-8.16-5.07-11.94.29-.7.91-1.21,1.62-1.47,47.37-17.66,95.57-33.69,139.83-58.34,45.86-25.54,140.24-90.04,144.78-146,4.52-55.67-66.97-54.76-110.86-43.89,0,0-5.46-8.83-8.52-12.46Z"/></svg>